<svg width="243" height="110" viewBox="0 0 243 110" fill="none" xmlns="http://www.w3.org/2000/svg">
<path d="M0.875 13.358C0.875 6.45447 6.47144 0.858032 13.375 0.858032H104.375C111.279 0.858032 116.875 6.45447 116.875 13.358C116.875 20.2616 111.279 25.858 104.375 25.858H13.375C6.47144 25.858 0.875 20.2616 0.875 13.358Z" fill="#BF93FF"/>
<path d="M20.0792 11.146C20.9592 11.146 21.6526 11.386 22.1592 11.866C22.6712 12.346 22.9272 13.058 22.9272 14.002C22.9272 14.946 22.6712 15.658 22.1592 16.138C21.6526 16.618 20.9592 16.858 20.0792 16.858H17.8152V11.146H20.0792ZM19.9032 15.906C21.1086 15.906 21.7112 15.2714 21.7112 14.002C21.7112 12.7327 21.1086 12.098 19.9032 12.098H19.0152V15.906H19.9032ZM28.1945 13.466V14.386H25.3705V15.874H28.3305V16.858H24.1705V11.146H28.3305V12.098H25.3705V13.466H28.1945ZM32.0108 14.77H30.8508V16.858H29.6508V11.146H32.4348C33.0908 11.146 33.6002 11.3087 33.9628 11.634C34.3255 11.954 34.5068 12.394 34.5068 12.954C34.5068 13.3807 34.4002 13.7407 34.1868 14.034C33.9735 14.3274 33.6695 14.5354 33.2748 14.658L34.6348 16.858H33.2348L32.0108 14.77ZM32.2508 13.818C32.5868 13.818 32.8428 13.7434 33.0188 13.594C33.1948 13.4447 33.2828 13.2314 33.2828 12.954C33.2828 12.682 33.1948 12.4714 33.0188 12.322C32.8428 12.1727 32.5868 12.098 32.2508 12.098H30.8508V13.818H32.2508ZM43.892 16.858H42.764V12.634H42.732L41.34 16.858H40.444L39.052 12.634H39.02V16.858H37.924V11.146H39.676L40.892 15.082H40.924L42.14 11.146H43.892V16.858ZM46.7014 15.498L46.2294 16.858H44.9574L47.0934 11.146H48.6694L50.8054 16.858H49.5094L49.0374 15.498H46.7014ZM47.8774 12.17H47.8454L47.0134 14.586H48.7254L47.8774 12.17ZM55.509 16.858L52.997 12.762H52.965V16.858H51.869V11.146H53.229L55.693 15.17H55.725V11.146H56.829V16.858H55.509ZM59.6386 15.498L59.1666 16.858H57.8946L60.0306 11.146H61.6066L63.7426 16.858H62.4466L61.9746 15.498H59.6386ZM60.8146 12.17H60.7826L59.9506 14.586H61.6626L60.8146 12.17ZM68.775 16.858V16.186C68.3643 16.7194 67.775 16.986 67.007 16.986C66.463 16.986 65.9776 16.8634 65.551 16.618C65.1243 16.3727 64.791 16.026 64.551 15.578C64.3163 15.1247 64.199 14.5967 64.199 13.994C64.199 13.3914 64.3163 12.866 64.551 12.418C64.791 11.97 65.1243 11.626 65.551 11.386C65.9776 11.1407 66.463 11.018 67.007 11.018C67.647 11.018 68.1936 11.178 68.647 11.498C69.1056 11.818 69.423 12.25 69.599 12.794L68.399 12.938C68.2763 12.634 68.0976 12.3994 67.863 12.234C67.6283 12.0687 67.343 11.986 67.007 11.986C66.527 11.986 66.143 12.1594 65.855 12.506C65.567 12.8527 65.423 13.3487 65.423 13.994C65.423 14.65 65.567 15.1514 65.855 15.498C66.143 15.8447 66.527 16.018 67.007 16.018C67.4123 16.018 67.7483 15.9007 68.015 15.666C68.287 15.4314 68.4523 15.13 68.511 14.762H67.111V13.858H69.623V16.858H68.775ZM74.9277 13.466V14.386H72.1037V15.874H75.0637V16.858H70.9037V11.146H75.0637V12.098H72.1037V13.466H74.9277ZM82.352 16.858H81.224V12.634H81.192L79.8 16.858H78.904L77.512 12.634H77.48V16.858H76.384V11.146H78.136L79.352 15.082H79.384L80.6 11.146H82.352V16.858ZM87.8414 13.466V14.386H85.0174V15.874H87.9774V16.858H83.8174V11.146H87.9774V12.098H85.0174V13.466H87.8414ZM92.9377 16.858L90.4257 12.762H90.3937V16.858H89.2977V11.146H90.6577L93.1217 15.17H93.1537V11.146H94.2577V16.858H92.9377ZM98.4273 12.154V16.858H97.2273V12.154H95.3793V11.146H100.275V12.154H98.4273Z" fill="#452E66"/>
<g opacity="0.8">
<path d="M4.445 45.718C5.17167 45.718 5.735 45.9014 6.135 46.268C6.535 46.6347 6.735 47.1547 6.735 47.828C6.735 48.5014 6.535 49.0214 6.135 49.388C5.735 49.7547 5.17167 49.938 4.445 49.938H2.235V52.858H1.535V45.718H4.445ZM4.335 49.338C4.88167 49.338 5.29833 49.2147 5.585 48.968C5.87167 48.7147 6.015 48.3347 6.015 47.828C6.015 47.3214 5.87167 46.9447 5.585 46.698C5.29833 46.4447 4.88167 46.318 4.335 46.318H2.235V49.338H4.335ZM8.25711 48.618H8.28711C8.42044 48.2647 8.64044 47.9914 8.94711 47.798C9.26044 47.598 9.62044 47.498 10.0271 47.498C10.1871 47.498 10.3271 47.5114 10.4471 47.538V48.168C10.3071 48.148 10.1538 48.138 9.98711 48.138C9.48044 48.138 9.07044 48.3147 8.75711 48.668C8.45044 49.0147 8.29711 49.5247 8.29711 50.198V52.858H7.63711V47.618H8.25711V48.618ZM13.2546 47.498C13.7346 47.498 14.1579 47.6114 14.5246 47.838C14.8913 48.058 15.1746 48.3747 15.3746 48.788C15.5813 49.2014 15.6846 49.6847 15.6846 50.238C15.6846 50.7914 15.5813 51.2747 15.3746 51.688C15.1746 52.1014 14.8913 52.4214 14.5246 52.648C14.1579 52.868 13.7346 52.978 13.2546 52.978C12.7813 52.978 12.3613 52.868 11.9946 52.648C11.6279 52.4214 11.3413 52.1014 11.1346 51.688C10.9346 51.2747 10.8346 50.7914 10.8346 50.238C10.8346 49.6847 10.9346 49.2014 11.1346 48.788C11.3413 48.3747 11.6279 48.058 11.9946 47.838C12.3613 47.6114 12.7813 47.498 13.2546 47.498ZM13.2546 52.418C13.7746 52.418 14.1946 52.2247 14.5146 51.838C14.8413 51.4447 15.0046 50.9114 15.0046 50.238C15.0046 49.5647 14.8413 49.0314 14.5146 48.638C14.1946 48.2447 13.7746 48.048 13.2546 48.048C12.7346 48.048 12.3146 48.2447 11.9946 48.638C11.6746 49.0314 11.5146 49.5647 11.5146 50.238C11.5146 50.9114 11.6746 51.4447 11.9946 51.838C12.3146 52.2247 12.7346 52.418 13.2546 52.418ZM16.261 54.238C16.461 54.238 16.5977 54.188 16.671 54.088C16.751 53.9947 16.791 53.818 16.791 53.558V47.618H17.441V53.658C17.441 54.098 17.3543 54.4014 17.181 54.568C17.0143 54.7347 16.7277 54.818 16.321 54.818C16.1543 54.818 15.9643 54.8114 15.751 54.798V54.218C15.8977 54.2314 16.0677 54.238 16.261 54.238ZM17.471 45.618V46.428H16.761V45.618H17.471ZM23.063 51.398C22.9096 51.8447 22.6463 52.2214 22.273 52.528C21.8996 52.828 21.393 52.978 20.753 52.978C20.293 52.978 19.8863 52.868 19.533 52.648C19.1796 52.4214 18.903 52.1014 18.703 51.688C18.503 51.268 18.403 50.7814 18.403 50.228C18.403 49.6814 18.503 49.2014 18.703 48.788C18.903 48.3747 19.1796 48.058 19.533 47.838C19.8863 47.6114 20.293 47.498 20.753 47.498C21.2196 47.498 21.633 47.6147 21.993 47.848C22.3596 48.0747 22.6396 48.408 22.833 48.848C23.033 49.2814 23.123 49.798 23.103 50.398H19.083C19.0963 50.998 19.2563 51.4847 19.563 51.858C19.8696 52.2314 20.2663 52.418 20.753 52.418C21.2063 52.418 21.5663 52.3114 21.833 52.098C22.0996 51.878 22.2863 51.6147 22.393 51.308L23.063 51.398ZM20.753 48.048C20.2796 48.048 19.893 48.2214 19.593 48.568C19.293 48.908 19.1263 49.3347 19.093 49.848H22.423C22.3896 49.3347 22.2196 48.908 21.913 48.568C21.613 48.2214 21.2263 48.048 20.753 48.048ZM26.2127 52.418C26.986 52.418 27.5227 51.998 27.8227 51.158L28.5027 51.258C28.356 51.718 28.096 52.1214 27.7227 52.468C27.356 52.808 26.8527 52.978 26.2127 52.978C25.746 52.978 25.3327 52.868 24.9727 52.648C24.6127 52.4214 24.3327 52.1014 24.1327 51.688C23.9327 51.2747 23.8327 50.7914 23.8327 50.238C23.8327 49.6847 23.9327 49.2014 24.1327 48.788C24.3393 48.3747 24.6227 48.058 24.9827 47.838C25.3493 47.6114 25.766 47.498 26.2327 47.498C26.8393 47.498 27.3093 47.648 27.6427 47.948C27.9827 48.248 28.226 48.5614 28.3727 48.888L27.7427 49.098C27.6027 48.8247 27.4227 48.5814 27.2027 48.368C26.9893 48.1547 26.666 48.048 26.2327 48.048C25.7127 48.048 25.296 48.2447 24.9827 48.638C24.6693 49.0314 24.5127 49.5647 24.5127 50.238C24.5127 50.9114 24.666 51.4447 24.9727 51.838C25.286 52.2247 25.6993 52.418 26.2127 52.418ZM31.1266 52.298C31.3532 52.298 31.5399 52.2914 31.6866 52.278V52.858C31.4866 52.8714 31.2799 52.878 31.0666 52.878C30.7399 52.878 30.4866 52.8447 30.3066 52.778C30.1266 52.7047 29.9966 52.5847 29.9166 52.418C29.8366 52.2514 29.7966 52.018 29.7966 51.718V48.138H28.9066V47.618H29.7966V46.088H30.4466V47.618H31.7166V48.138H30.4466V51.578C30.4466 51.858 30.4932 52.048 30.5866 52.148C30.6799 52.248 30.8599 52.298 31.1266 52.298ZM33.6285 48.008V48.928H32.7385V48.008H33.6285ZM33.6285 51.948V52.858H32.7385V51.948H33.6285ZM55.045 48.618V49.768H51.515V51.628H55.225V52.858H50.015V45.718H55.225V46.908H51.515V48.618H55.045ZM58.7044 45.718C59.8044 45.718 60.6744 46.018 61.3144 46.618C61.9544 47.218 62.2744 48.108 62.2744 49.288C62.2744 50.468 61.9544 51.358 61.3144 51.958C60.6744 52.558 59.8044 52.858 58.7044 52.858H55.8744V45.718H58.7044ZM58.4844 51.668C59.2177 51.668 59.7777 51.478 60.1644 51.098C60.551 50.7114 60.7444 50.108 60.7444 49.288C60.7444 48.468 60.551 47.868 60.1644 47.488C59.7777 47.1014 59.2177 46.908 58.4844 46.908H57.3744V51.668H58.4844ZM68.5152 52.858V52.018C68.0018 52.6847 67.2685 53.018 66.3152 53.018C65.6285 53.018 65.0185 52.8647 64.4852 52.558C63.9585 52.2514 63.5452 51.818 63.2452 51.258C62.9452 50.6914 62.7952 50.0314 62.7952 49.278C62.7952 48.5247 62.9418 47.868 63.2352 47.308C63.5352 46.748 63.9518 46.318 64.4852 46.018C65.0185 45.7114 65.6285 45.558 66.3152 45.558C67.1085 45.558 67.7885 45.758 68.3552 46.158C68.9285 46.558 69.3285 47.098 69.5552 47.778L68.0452 47.958C67.8918 47.578 67.6685 47.2847 67.3752 47.078C67.0818 46.8714 66.7285 46.768 66.3152 46.768C65.7152 46.768 65.2318 46.9847 64.8652 47.418C64.5052 47.8514 64.3252 48.4714 64.3252 49.278C64.3252 50.098 64.5052 50.7247 64.8652 51.158C65.2252 51.5914 65.7085 51.808 66.3152 51.808C66.8152 51.808 67.2318 51.6614 67.5652 51.368C67.9052 51.0747 68.1152 50.698 68.1952 50.238H66.4352V49.108H69.5852V52.858H68.5152ZM75.3673 48.618V49.768H71.8373V51.628H75.5473V52.858H70.3373V45.718H75.5473V46.908H71.8373V48.618H75.3673Z" fill="white"/>
<path d="M4.445 63.718C5.17167 63.718 5.735 63.9014 6.135 64.268C6.535 64.6347 6.735 65.1547 6.735 65.828C6.735 66.5014 6.535 67.0214 6.135 67.388C5.735 67.7547 5.17167 67.938 4.445 67.938H2.235V70.858H1.535V63.718H4.445ZM4.335 67.338C4.88167 67.338 5.29833 67.2147 5.585 66.968C5.87167 66.7147 6.015 66.3347 6.015 65.828C6.015 65.3214 5.87167 64.9447 5.585 64.698C5.29833 64.4447 4.88167 64.318 4.335 64.318H2.235V67.338H4.335ZM10.9299 70.858C10.8633 70.7714 10.8199 70.508 10.7999 70.068C10.5933 70.3947 10.3099 70.628 9.94992 70.768C9.58992 70.908 9.21992 70.978 8.83992 70.978C8.53992 70.978 8.26659 70.9147 8.01992 70.788C7.77326 70.6614 7.57659 70.4814 7.42992 70.248C7.28992 70.0147 7.21992 69.748 7.21992 69.448C7.21992 68.908 7.40992 68.5214 7.78992 68.288C8.17659 68.0547 8.71992 67.8914 9.41992 67.798C9.81326 67.7447 10.1033 67.6947 10.2899 67.648C10.4766 67.5947 10.6033 67.5314 10.6699 67.458C10.7433 67.3847 10.7799 67.278 10.7799 67.138C10.7799 66.798 10.6733 66.5314 10.4599 66.338C10.2466 66.1447 9.91992 66.048 9.47992 66.048C9.13992 66.048 8.83992 66.1314 8.57992 66.298C8.32659 66.458 8.14326 66.7347 8.02992 67.128L7.41992 66.978C7.54659 66.478 7.79659 66.108 8.16992 65.868C8.54992 65.6214 8.99659 65.498 9.50992 65.498C10.1633 65.498 10.6466 65.6447 10.9599 65.938C11.2799 66.2247 11.4399 66.618 11.4399 67.118V69.568C11.4399 69.9147 11.4466 70.1814 11.4599 70.368C11.4799 70.548 11.5199 70.7114 11.5799 70.858H10.9299ZM10.7799 67.948C10.7066 68.0347 10.5666 68.1014 10.3599 68.148C10.1533 68.188 9.81992 68.2447 9.35992 68.318C8.97326 68.3714 8.63326 68.4847 8.33992 68.658C8.04659 68.8314 7.89992 69.0947 7.89992 69.448C7.89992 69.748 7.99659 69.9847 8.18992 70.158C8.38326 70.3314 8.64326 70.418 8.96992 70.418C9.42992 70.418 9.84659 70.2914 10.2199 70.038C10.5933 69.778 10.7799 69.3447 10.7799 68.738V67.948ZM13.218 66.618H13.248C13.3814 66.2647 13.6014 65.9914 13.908 65.798C14.2214 65.598 14.5814 65.498 14.988 65.498C15.148 65.498 15.288 65.5114 15.408 65.538V66.168C15.268 66.148 15.1147 66.138 14.948 66.138C14.4414 66.138 14.0314 66.3147 13.718 66.668C13.4114 67.0147 13.258 67.5247 13.258 68.198V70.858H12.598V65.618H13.218V66.618ZM18.0699 70.298C18.2966 70.298 18.4833 70.2914 18.6299 70.278V70.858C18.4299 70.8714 18.2233 70.878 18.0099 70.878C17.6833 70.878 17.4299 70.8447 17.2499 70.778C17.0699 70.7047 16.9399 70.5847 16.8599 70.418C16.7799 70.2514 16.7399 70.018 16.7399 69.718V66.138H15.8499V65.618H16.7399V64.088H17.3899V65.618H18.6599V66.138H17.3899V69.578C17.3899 69.858 17.4366 70.048 17.5299 70.148C17.6233 70.248 17.8033 70.298 18.0699 70.298ZM20.1719 66.418C20.3052 66.158 20.5252 65.9414 20.8319 65.768C21.1385 65.588 21.4819 65.498 21.8619 65.498C22.4219 65.498 22.8719 65.658 23.2119 65.978C23.5519 66.298 23.7219 66.7514 23.7219 67.338V70.858H23.0719V67.618C23.0719 67.078 22.9652 66.6847 22.7519 66.438C22.5452 66.1847 22.2085 66.058 21.7419 66.058C21.3019 66.058 20.9319 66.2114 20.6319 66.518C20.3319 66.818 20.1819 67.2814 20.1819 67.908V70.858H19.5219V65.618H20.1419V66.418H20.1719ZM29.3032 69.398C29.1499 69.8447 28.8865 70.2214 28.5132 70.528C28.1399 70.828 27.6332 70.978 26.9932 70.978C26.5332 70.978 26.1265 70.868 25.7732 70.648C25.4199 70.4214 25.1432 70.1014 24.9432 69.688C24.7432 69.268 24.6432 68.7814 24.6432 68.228C24.6432 67.6814 24.7432 67.2014 24.9432 66.788C25.1432 66.3747 25.4199 66.058 25.7732 65.838C26.1265 65.6114 26.5332 65.498 26.9932 65.498C27.4599 65.498 27.8732 65.6147 28.2332 65.848C28.5999 66.0747 28.8799 66.408 29.0732 66.848C29.2732 67.2814 29.3632 67.798 29.3432 68.398H25.3232C25.3365 68.998 25.4965 69.4847 25.8032 69.858C26.1099 70.2314 26.5065 70.418 26.9932 70.418C27.4465 70.418 27.8065 70.3114 28.0732 70.098C28.3399 69.878 28.5265 69.6147 28.6332 69.308L29.3032 69.398ZM26.9932 66.048C26.5199 66.048 26.1332 66.2214 25.8332 66.568C25.5332 66.908 25.3665 67.3347 25.3332 67.848H28.6632C28.6299 67.3347 28.4599 66.908 28.1532 66.568C27.8532 66.2214 27.4665 66.048 26.9932 66.048ZM30.9329 66.618H30.9629C31.0962 66.2647 31.3162 65.9914 31.6229 65.798C31.9362 65.598 32.2962 65.498 32.7029 65.498C32.8629 65.498 33.0029 65.5114 33.1229 65.538V66.168C32.9829 66.148 32.8296 66.138 32.6629 66.138C32.1562 66.138 31.7462 66.3147 31.4329 66.668C31.1262 67.0147 30.9729 67.5247 30.9729 68.198V70.858H30.3129V65.618H30.9329V66.618ZM35.0348 66.008V66.928H34.1448V66.008H35.0348ZM35.0348 69.948V70.858H34.1448V69.948H35.0348ZM51.317 69.158L50.737 70.858H49.137L51.807 63.718H53.777L56.447 70.858H54.837L54.237 69.158H51.317ZM52.797 64.998H52.757L51.707 68.018H53.847L52.797 64.998ZM61.8809 66.618V67.768H58.3509V69.628H62.0609V70.858H56.8509V63.718H62.0609V64.908H58.3509V66.618H61.8809ZM70.1803 70.858H68.7603V65.578H68.7203L66.9803 70.858H65.8703L64.1303 65.578H64.0903V70.858H62.7103V63.718H64.9103L66.4303 68.638H66.4703L67.9903 63.718H70.1803V70.858ZM74.3423 63.558C75.0356 63.558 75.6456 63.708 76.1723 64.008C76.7056 64.3014 77.1189 64.7314 77.4123 65.298C77.7056 65.858 77.8523 66.5214 77.8523 67.288C77.8523 68.0547 77.7056 68.7214 77.4123 69.288C77.1189 69.848 76.7056 70.278 76.1723 70.578C75.6456 70.8714 75.0356 71.018 74.3423 71.018C73.6556 71.018 73.0456 70.8714 72.5123 70.578C71.9856 70.278 71.5723 69.848 71.2723 69.288C70.9789 68.7214 70.8323 68.0547 70.8323 67.288C70.8323 66.5214 70.9789 65.858 71.2723 65.298C71.5723 64.7314 71.9856 64.3014 72.5123 64.008C73.0456 63.708 73.6556 63.558 74.3423 63.558ZM74.3423 69.808C74.9423 69.808 75.4223 69.5947 75.7823 69.168C76.1489 68.7347 76.3323 68.108 76.3323 67.288C76.3323 66.468 76.1489 65.8447 75.7823 65.418C75.4223 64.9847 74.9423 64.768 74.3423 64.768C73.7423 64.768 73.2623 64.9847 72.9023 65.418C72.5423 65.8447 72.3623 66.468 72.3623 67.288C72.3623 68.108 72.5423 68.7347 72.9023 69.168C73.2623 69.5947 73.7423 69.808 74.3423 69.808ZM80.5854 67.408H83.6754V68.618H80.5854V67.408ZM88.3189 69.158L87.7389 70.858H86.1389L88.8089 63.718H90.7789L93.4489 70.858H91.8389L91.2389 69.158H88.3189ZM89.7989 64.998H89.7589L88.7089 68.018H90.8489L89.7989 64.998ZM97.2162 70.158C96.8295 70.7047 96.2728 70.978 95.5462 70.978C95.0062 70.978 94.5595 70.818 94.2062 70.498C93.8595 70.1714 93.6862 69.688 93.6862 69.048V65.568H95.0862V68.688C95.0862 69.1014 95.1662 69.398 95.3262 69.578C95.4928 69.758 95.7428 69.848 96.0762 69.848C96.3895 69.848 96.6528 69.728 96.8662 69.488C97.0862 69.2414 97.1962 68.8947 97.1962 68.448V65.568H98.5962V70.858H97.2562V70.158H97.2162ZM102.472 67.168C102.419 66.9147 102.295 66.718 102.102 66.578C101.915 66.438 101.692 66.368 101.432 66.368C101.172 66.368 100.962 66.4247 100.802 66.538C100.642 66.6447 100.562 66.798 100.562 66.998C100.562 67.1714 100.639 67.298 100.792 67.378C100.945 67.458 101.179 67.5247 101.492 67.578L102.032 67.658C102.619 67.758 103.075 67.9214 103.402 68.148C103.735 68.3747 103.902 68.7547 103.902 69.288C103.902 69.848 103.679 70.2714 103.232 70.558C102.785 70.838 102.199 70.978 101.472 70.978C100.779 70.978 100.205 70.8314 99.7521 70.538C99.3054 70.238 99.0388 69.8314 98.9521 69.318L100.262 69.128C100.329 69.4414 100.465 69.6747 100.672 69.828C100.885 69.9814 101.159 70.058 101.492 70.058C101.792 70.058 102.032 69.9947 102.212 69.868C102.392 69.7414 102.482 69.568 102.482 69.348C102.482 69.168 102.399 69.0314 102.232 68.938C102.065 68.8447 101.815 68.7714 101.482 68.718L100.902 68.628C100.375 68.5414 99.9521 68.3847 99.6321 68.158C99.3188 67.9314 99.1621 67.5647 99.1621 67.058C99.1621 66.7314 99.2621 66.4447 99.4621 66.198C99.6688 65.9514 99.9454 65.7647 100.292 65.638C100.639 65.5047 101.019 65.438 101.432 65.438C102.045 65.438 102.565 65.5814 102.992 65.868C103.425 66.1547 103.682 66.528 103.762 66.988L102.472 67.168ZM107.331 69.768V70.858C107.145 70.8714 106.838 70.878 106.411 70.878C106.031 70.878 105.731 70.8447 105.511 70.778C105.291 70.7047 105.128 70.578 105.021 70.398C104.915 70.2114 104.861 69.9447 104.861 69.598V66.508H104.021V65.568H104.861V64.088H106.261V65.568H107.371V66.508H106.261V69.248C106.261 69.468 106.305 69.6114 106.391 69.678C106.485 69.738 106.648 69.768 106.881 69.768H107.331ZM109.206 66.378H109.246C109.393 66.0914 109.599 65.8647 109.866 65.698C110.139 65.5247 110.463 65.438 110.836 65.438C110.969 65.438 111.093 65.4547 111.206 65.488V66.788C111.166 66.788 111.086 66.7814 110.966 66.768C110.853 66.7547 110.749 66.748 110.656 66.748C109.729 66.748 109.266 67.228 109.266 68.188V70.858H107.866V65.568H109.206V66.378ZM114.989 70.858C114.942 70.8047 114.905 70.7147 114.879 70.588C114.852 70.4547 114.839 70.298 114.839 70.118C114.692 70.3914 114.455 70.6047 114.129 70.758C113.809 70.9047 113.462 70.978 113.089 70.978C112.775 70.978 112.482 70.9147 112.209 70.788C111.942 70.6614 111.725 70.4814 111.559 70.248C111.399 70.008 111.319 69.728 111.319 69.408C111.319 68.868 111.502 68.468 111.869 68.208C112.235 67.948 112.785 67.7747 113.519 67.688C114.025 67.6214 114.369 67.548 114.549 67.468C114.735 67.3814 114.829 67.2547 114.829 67.088C114.829 66.888 114.752 66.7314 114.599 66.618C114.445 66.498 114.215 66.438 113.909 66.438C113.655 66.438 113.429 66.5047 113.229 66.638C113.035 66.7714 112.899 66.968 112.819 67.228L111.529 67.028C111.642 66.5347 111.915 66.148 112.349 65.868C112.782 65.5814 113.312 65.438 113.939 65.438C114.705 65.438 115.279 65.5914 115.659 65.898C116.039 66.2047 116.229 66.6214 116.229 67.148V69.798C116.229 70.1047 116.235 70.3347 116.249 70.488C116.269 70.6347 116.309 70.758 116.369 70.858H114.989ZM114.829 68.248C114.749 68.3147 114.612 68.3714 114.419 68.418C114.232 68.458 113.985 68.498 113.679 68.538C113.399 68.5847 113.172 68.6747 112.999 68.808C112.832 68.9347 112.749 69.1147 112.749 69.348C112.749 69.5614 112.815 69.728 112.949 69.848C113.089 69.9614 113.279 70.018 113.519 70.018C113.725 70.018 113.929 69.9747 114.129 69.888C114.329 69.8014 114.495 69.668 114.629 69.488C114.762 69.3014 114.829 69.0714 114.829 68.798V68.248ZM118.319 63.618V70.858H116.919V63.618H118.319ZM120.438 65.568V70.858H119.038V65.568H120.438ZM120.438 63.618V64.818H119.038V63.618H120.438ZM124.637 70.858C124.59 70.8047 124.554 70.7147 124.527 70.588C124.5 70.4547 124.487 70.298 124.487 70.118C124.34 70.3914 124.104 70.6047 123.777 70.758C123.457 70.9047 123.11 70.978 122.737 70.978C122.424 70.978 122.13 70.9147 121.857 70.788C121.59 70.6614 121.374 70.4814 121.207 70.248C121.047 70.008 120.967 69.728 120.967 69.408C120.967 68.868 121.15 68.468 121.517 68.208C121.884 67.948 122.434 67.7747 123.167 67.688C123.674 67.6214 124.017 67.548 124.197 67.468C124.384 67.3814 124.477 67.2547 124.477 67.088C124.477 66.888 124.4 66.7314 124.247 66.618C124.094 66.498 123.864 66.438 123.557 66.438C123.304 66.438 123.077 66.5047 122.877 66.638C122.684 66.7714 122.547 66.968 122.467 67.228L121.177 67.028C121.29 66.5347 121.564 66.148 121.997 65.868C122.43 65.5814 122.96 65.438 123.587 65.438C124.354 65.438 124.927 65.5914 125.307 65.898C125.687 66.2047 125.877 66.6214 125.877 67.148V69.798C125.877 70.1047 125.884 70.3347 125.897 70.488C125.917 70.6347 125.957 70.758 126.017 70.858H124.637ZM124.477 68.248C124.397 68.3147 124.26 68.3714 124.067 68.418C123.88 68.458 123.634 68.498 123.327 68.538C123.047 68.5847 122.82 68.6747 122.647 68.808C122.48 68.9347 122.397 69.1147 122.397 69.348C122.397 69.5614 122.464 69.728 122.597 69.848C122.737 69.9614 122.927 70.018 123.167 70.018C123.374 70.018 123.577 69.9747 123.777 69.888C123.977 69.8014 124.144 69.668 124.277 69.488C124.41 69.3014 124.477 69.0714 124.477 68.798V68.248ZM127.937 66.268C128.331 65.7147 128.887 65.438 129.607 65.438C130.147 65.438 130.591 65.6014 130.937 65.928C131.291 66.2547 131.467 66.7347 131.467 67.368V70.858H130.067V67.728C130.067 67.3147 129.984 67.018 129.817 66.838C129.657 66.658 129.411 66.568 129.077 66.568C128.764 66.568 128.497 66.6914 128.277 66.938C128.064 67.178 127.957 67.5247 127.957 67.978V70.858H126.557V65.568H127.897V66.268H127.937ZM139.108 66.618V67.768H135.578V69.628H139.288V70.858H134.078V63.718H139.288V64.908H135.578V66.618H139.108ZM141.287 66.268C141.68 65.7147 142.237 65.438 142.957 65.438C143.497 65.438 143.94 65.6014 144.287 65.928C144.64 66.2547 144.817 66.7347 144.817 67.368V70.858H143.417V67.728C143.417 67.3147 143.334 67.018 143.167 66.838C143.007 66.658 142.76 66.568 142.427 66.568C142.114 66.568 141.847 66.6914 141.627 66.938C141.414 67.178 141.307 67.5247 141.307 67.978V70.858H139.907V65.568H141.247V66.268H141.287ZM150.593 69.288C150.466 69.748 150.193 70.1447 149.773 70.478C149.353 70.8114 148.763 70.978 148.003 70.978C147.463 70.978 146.993 70.868 146.593 70.648C146.193 70.4214 145.886 70.1014 145.673 69.688C145.459 69.268 145.353 68.778 145.353 68.218C145.353 67.6514 145.456 67.1614 145.663 66.748C145.876 66.328 146.179 66.0047 146.573 65.778C146.973 65.5514 147.446 65.438 147.993 65.438C148.519 65.438 148.983 65.5447 149.383 65.758C149.783 65.9714 150.093 66.288 150.313 66.708C150.533 67.1214 150.643 67.618 150.643 68.198C150.643 68.3314 150.639 68.4347 150.633 68.508H146.773C146.786 68.9547 146.903 69.3147 147.123 69.588C147.343 69.8547 147.636 69.988 148.003 69.988C148.349 69.988 148.613 69.908 148.793 69.748C148.973 69.5814 149.096 69.388 149.163 69.168L150.593 69.288ZM147.993 66.418C147.639 66.418 147.356 66.5314 147.143 66.758C146.936 66.9847 146.819 67.268 146.793 67.608H149.203C149.176 67.2614 149.056 66.978 148.843 66.758C148.636 66.5314 148.353 66.418 147.993 66.418ZM152.565 66.378H152.605C152.752 66.0914 152.959 65.8647 153.225 65.698C153.499 65.5247 153.822 65.438 154.195 65.438C154.329 65.438 154.452 65.4547 154.565 65.488V66.788C154.525 66.788 154.445 66.7814 154.325 66.768C154.212 66.7547 154.109 66.748 154.015 66.748C153.089 66.748 152.625 67.228 152.625 68.188V70.858H151.225V65.568H152.565V66.378ZM160.105 70.458C160.105 71.2847 159.865 71.8847 159.385 72.258C158.912 72.6314 158.275 72.818 157.475 72.818C156.815 72.818 156.259 72.678 155.805 72.398C155.352 72.118 155.045 71.6814 154.885 71.088L156.265 70.918C156.352 71.218 156.495 71.4347 156.695 71.568C156.895 71.708 157.155 71.778 157.475 71.778C158.295 71.778 158.705 71.3247 158.705 70.418V69.908H158.665C158.352 70.3547 157.835 70.578 157.115 70.578C156.682 70.578 156.292 70.4747 155.945 70.268C155.599 70.0547 155.325 69.7547 155.125 69.368C154.932 68.9747 154.835 68.5214 154.835 68.008C154.835 67.4947 154.932 67.0447 155.125 66.658C155.325 66.2647 155.599 65.9647 155.945 65.758C156.299 65.5447 156.695 65.438 157.135 65.438C157.489 65.438 157.802 65.5014 158.075 65.628C158.355 65.7547 158.572 65.9447 158.725 66.198H158.765V65.568H160.105V70.458ZM157.525 69.528C157.905 69.528 158.209 69.3914 158.435 69.118C158.669 68.838 158.785 68.468 158.785 68.008C158.785 67.5547 158.669 67.1914 158.435 66.918C158.209 66.6447 157.905 66.508 157.525 66.508C157.139 66.508 156.832 66.6447 156.605 66.918C156.379 67.1914 156.265 67.5547 156.265 68.008C156.265 68.468 156.379 68.838 156.605 69.118C156.832 69.3914 157.139 69.528 157.525 69.528ZM163.976 70.858C163.776 71.4114 163.566 71.8314 163.346 72.118C163.132 72.4047 162.902 72.5914 162.656 72.678C162.416 72.7714 162.126 72.818 161.786 72.818C161.426 72.818 161.146 72.808 160.946 72.788V71.628C161.132 71.6547 161.339 71.668 161.566 71.668C161.806 71.668 161.986 71.618 162.106 71.518C162.232 71.418 162.349 71.238 162.456 70.978L162.516 70.808L160.396 65.568H161.916L163.206 69.188H163.246L164.416 65.568H165.906L163.976 70.858ZM175.649 70.858H174.229V65.578H174.189L172.449 70.858H171.339L169.599 65.578H169.559V70.858H168.179V63.718H170.379L171.899 68.638H171.939L173.459 63.718H175.649V70.858ZM179.891 70.858C179.844 70.8047 179.808 70.7147 179.781 70.588C179.754 70.4547 179.741 70.298 179.741 70.118C179.594 70.3914 179.358 70.6047 179.031 70.758C178.711 70.9047 178.364 70.978 177.991 70.978C177.678 70.978 177.384 70.9147 177.111 70.788C176.844 70.6614 176.628 70.4814 176.461 70.248C176.301 70.008 176.221 69.728 176.221 69.408C176.221 68.868 176.404 68.468 176.771 68.208C177.138 67.948 177.688 67.7747 178.421 67.688C178.928 67.6214 179.271 67.548 179.451 67.468C179.638 67.3814 179.731 67.2547 179.731 67.088C179.731 66.888 179.654 66.7314 179.501 66.618C179.348 66.498 179.118 66.438 178.811 66.438C178.558 66.438 178.331 66.5047 178.131 66.638C177.938 66.7714 177.801 66.968 177.721 67.228L176.431 67.028C176.544 66.5347 176.818 66.148 177.251 65.868C177.684 65.5814 178.214 65.438 178.841 65.438C179.608 65.438 180.181 65.5914 180.561 65.898C180.941 66.2047 181.131 66.6214 181.131 67.148V69.798C181.131 70.1047 181.138 70.3347 181.151 70.488C181.171 70.6347 181.211 70.758 181.271 70.858H179.891ZM179.731 68.248C179.651 68.3147 179.514 68.3714 179.321 68.418C179.134 68.458 178.888 68.498 178.581 68.538C178.301 68.5847 178.074 68.6747 177.901 68.808C177.734 68.9347 177.651 69.1147 177.651 69.348C177.651 69.5614 177.718 69.728 177.851 69.848C177.991 69.9614 178.181 70.018 178.421 70.018C178.628 70.018 178.831 69.9747 179.031 69.888C179.231 69.8014 179.398 69.668 179.531 69.488C179.664 69.3014 179.731 69.0714 179.731 68.798V68.248ZM183.151 66.378H183.191C183.338 66.0914 183.545 65.8647 183.811 65.698C184.085 65.5247 184.408 65.438 184.781 65.438C184.915 65.438 185.038 65.4547 185.151 65.488V66.788C185.111 66.788 185.031 66.7814 184.911 66.768C184.798 66.7547 184.695 66.748 184.601 66.748C183.675 66.748 183.211 67.228 183.211 68.188V70.858H181.811V65.568H183.151V66.378ZM186.981 70.858H185.581V63.618H186.981V67.618L188.891 65.568H190.501L188.521 67.598L190.731 70.858H189.101L187.571 68.528L186.981 69.138V70.858ZM195.583 69.288C195.456 69.748 195.183 70.1447 194.763 70.478C194.343 70.8114 193.753 70.978 192.993 70.978C192.453 70.978 191.983 70.868 191.583 70.648C191.183 70.4214 190.876 70.1014 190.663 69.688C190.45 69.268 190.343 68.778 190.343 68.218C190.343 67.6514 190.446 67.1614 190.653 66.748C190.866 66.328 191.17 66.0047 191.563 65.778C191.963 65.5514 192.436 65.438 192.983 65.438C193.51 65.438 193.973 65.5447 194.373 65.758C194.773 65.9714 195.083 66.288 195.303 66.708C195.523 67.1214 195.633 67.618 195.633 68.198C195.633 68.3314 195.63 68.4347 195.623 68.508H191.763C191.776 68.9547 191.893 69.3147 192.113 69.588C192.333 69.8547 192.626 69.988 192.993 69.988C193.34 69.988 193.603 69.908 193.783 69.748C193.963 69.5814 194.086 69.388 194.153 69.168L195.583 69.288ZM192.983 66.418C192.63 66.418 192.346 66.5314 192.133 66.758C191.926 66.9847 191.81 67.268 191.783 67.608H194.193C194.166 67.2614 194.046 66.978 193.833 66.758C193.626 66.5314 193.343 66.418 192.983 66.418ZM199.06 69.768V70.858C198.873 70.8714 198.566 70.878 198.14 70.878C197.76 70.878 197.46 70.8447 197.24 70.778C197.02 70.7047 196.856 70.578 196.75 70.398C196.643 70.2114 196.59 69.9447 196.59 69.598V66.508H195.75V65.568H196.59V64.088H197.99V65.568H199.1V66.508H197.99V69.248C197.99 69.468 198.033 69.6114 198.12 69.678C198.213 69.738 198.376 69.768 198.61 69.768H199.06ZM204.909 63.558C205.602 63.558 206.212 63.708 206.739 64.008C207.272 64.3014 207.685 64.7314 207.979 65.298C208.272 65.858 208.419 66.5214 208.419 67.288C208.419 68.0547 208.272 68.7214 207.979 69.288C207.685 69.848 207.272 70.278 206.739 70.578C206.212 70.8714 205.602 71.018 204.909 71.018C204.222 71.018 203.612 70.8714 203.079 70.578C202.552 70.278 202.139 69.848 201.839 69.288C201.545 68.7214 201.399 68.0547 201.399 67.288C201.399 66.5214 201.545 65.858 201.839 65.298C202.139 64.7314 202.552 64.3014 203.079 64.008C203.612 63.708 204.222 63.558 204.909 63.558ZM204.909 69.808C205.509 69.808 205.989 69.5947 206.349 69.168C206.715 68.7347 206.899 68.108 206.899 67.288C206.899 66.468 206.715 65.8447 206.349 65.418C205.989 64.9847 205.509 64.768 204.909 64.768C204.309 64.768 203.829 64.9847 203.469 65.418C203.109 65.8447 202.929 66.468 202.929 67.288C202.929 68.108 203.109 68.7347 203.469 69.168C203.829 69.5947 204.309 69.808 204.909 69.808ZM212.068 70.978C211.701 70.978 211.384 70.9147 211.118 70.788C210.851 70.6614 210.641 70.478 210.488 70.238H210.448V72.698H209.048V65.568H210.378V66.258H210.418C210.578 65.978 210.798 65.7714 211.078 65.638C211.358 65.5047 211.681 65.438 212.048 65.438C212.494 65.438 212.894 65.5514 213.248 65.778C213.601 66.0047 213.878 66.328 214.078 66.748C214.278 67.168 214.378 67.6547 214.378 68.208C214.378 68.7614 214.278 69.248 214.078 69.668C213.878 70.088 213.601 70.4114 213.248 70.638C212.901 70.8647 212.508 70.978 212.068 70.978ZM211.658 66.508C211.258 66.508 210.941 66.6547 210.708 66.948C210.481 67.2414 210.368 67.6614 210.368 68.208C210.368 68.7547 210.481 69.1747 210.708 69.468C210.941 69.7614 211.258 69.908 211.658 69.908C212.058 69.908 212.371 69.7647 212.598 69.478C212.831 69.1847 212.948 68.7614 212.948 68.208C212.948 67.6614 212.831 67.2414 212.598 66.948C212.371 66.6547 212.058 66.508 211.658 66.508ZM220.056 69.288C219.929 69.748 219.656 70.1447 219.236 70.478C218.816 70.8114 218.226 70.978 217.466 70.978C216.926 70.978 216.456 70.868 216.056 70.648C215.656 70.4214 215.349 70.1014 215.136 69.688C214.922 69.268 214.816 68.778 214.816 68.218C214.816 67.6514 214.919 67.1614 215.126 66.748C215.339 66.328 215.642 66.0047 216.036 65.778C216.436 65.5514 216.909 65.438 217.456 65.438C217.982 65.438 218.446 65.5447 218.846 65.758C219.246 65.9714 219.556 66.288 219.776 66.708C219.996 67.1214 220.106 67.618 220.106 68.198C220.106 68.3314 220.102 68.4347 220.096 68.508H216.236C216.249 68.9547 216.366 69.3147 216.586 69.588C216.806 69.8547 217.099 69.988 217.466 69.988C217.812 69.988 218.076 69.908 218.256 69.748C218.436 69.5814 218.559 69.388 218.626 69.168L220.056 69.288ZM217.456 66.418C217.102 66.418 216.819 66.5314 216.606 66.758C216.399 66.9847 216.282 67.268 216.256 67.608H218.666C218.639 67.2614 218.519 66.978 218.306 66.758C218.099 66.5314 217.816 66.418 217.456 66.418ZM222.028 66.378H222.068C222.215 66.0914 222.421 65.8647 222.688 65.698C222.961 65.5247 223.285 65.438 223.658 65.438C223.791 65.438 223.915 65.4547 224.028 65.488V66.788C223.988 66.788 223.908 66.7814 223.788 66.768C223.675 66.7547 223.571 66.748 223.478 66.748C222.551 66.748 222.088 67.228 222.088 68.188V70.858H220.688V65.568H222.028V66.378ZM227.811 70.858C227.764 70.8047 227.728 70.7147 227.701 70.588C227.674 70.4547 227.661 70.298 227.661 70.118C227.514 70.3914 227.278 70.6047 226.951 70.758C226.631 70.9047 226.284 70.978 225.911 70.978C225.598 70.978 225.304 70.9147 225.031 70.788C224.764 70.6614 224.548 70.4814 224.381 70.248C224.221 70.008 224.141 69.728 224.141 69.408C224.141 68.868 224.324 68.468 224.691 68.208C225.058 67.948 225.608 67.7747 226.341 67.688C226.848 67.6214 227.191 67.548 227.371 67.468C227.558 67.3814 227.651 67.2547 227.651 67.088C227.651 66.888 227.574 66.7314 227.421 66.618C227.268 66.498 227.038 66.438 226.731 66.438C226.478 66.438 226.251 66.5047 226.051 66.638C225.858 66.7714 225.721 66.968 225.641 67.228L224.351 67.028C224.464 66.5347 224.738 66.148 225.171 65.868C225.604 65.5814 226.134 65.438 226.761 65.438C227.528 65.438 228.101 65.5914 228.481 65.898C228.861 66.2047 229.051 66.6214 229.051 67.148V69.798C229.051 70.1047 229.058 70.3347 229.071 70.488C229.091 70.6347 229.131 70.758 229.191 70.858H227.811ZM227.651 68.248C227.571 68.3147 227.434 68.3714 227.241 68.418C227.054 68.458 226.808 68.498 226.501 68.538C226.221 68.5847 225.994 68.6747 225.821 68.808C225.654 68.9347 225.571 69.1147 225.571 69.348C225.571 69.5614 225.638 69.728 225.771 69.848C225.911 69.9614 226.101 70.018 226.341 70.018C226.548 70.018 226.751 69.9747 226.951 69.888C227.151 69.8014 227.318 69.668 227.451 69.488C227.584 69.3014 227.651 69.0714 227.651 68.798V68.248ZM232.751 69.768V70.858C232.564 70.8714 232.258 70.878 231.831 70.878C231.451 70.878 231.151 70.8447 230.931 70.778C230.711 70.7047 230.548 70.578 230.441 70.398C230.334 70.2114 230.281 69.9447 230.281 69.598V66.508H229.441V65.568H230.281V64.088H231.681V65.568H232.791V66.508H231.681V69.248C231.681 69.468 231.724 69.6114 231.811 69.678C231.904 69.738 232.068 69.768 232.301 69.768H232.751ZM235.748 65.438C236.295 65.438 236.772 65.5514 237.178 65.778C237.585 66.0047 237.898 66.328 238.118 66.748C238.338 67.168 238.448 67.658 238.448 68.218C238.448 68.778 238.338 69.268 238.118 69.688C237.898 70.1014 237.585 70.4214 237.178 70.648C236.772 70.868 236.295 70.978 235.748 70.978C235.195 70.978 234.712 70.868 234.298 70.648C233.892 70.4214 233.578 70.1014 233.358 69.688C233.145 69.268 233.038 68.778 233.038 68.218C233.038 67.6514 233.145 67.1614 233.358 66.748C233.578 66.328 233.892 66.0047 234.298 65.778C234.712 65.5514 235.195 65.438 235.748 65.438ZM235.748 69.928C236.142 69.928 236.452 69.7814 236.678 69.488C236.905 69.1947 237.018 68.7714 237.018 68.218C237.018 67.658 236.905 67.2314 236.678 66.938C236.452 66.638 236.142 66.488 235.748 66.488C235.348 66.488 235.032 66.638 234.798 66.938C234.572 67.2314 234.458 67.658 234.458 68.218C234.458 68.7714 234.572 69.1947 234.798 69.488C235.032 69.7814 235.348 69.928 235.748 69.928ZM240.358 66.378H240.398C240.545 66.0914 240.752 65.8647 241.018 65.698C241.292 65.5247 241.615 65.438 241.988 65.438C242.122 65.438 242.245 65.4547 242.358 65.488V66.788C242.318 66.788 242.238 66.7814 242.118 66.768C242.005 66.7547 241.902 66.748 241.808 66.748C240.882 66.748 240.418 67.228 240.418 68.188V70.858H239.018V65.568H240.358V66.378Z" fill="white"/>
<path d="M7.485 86.658C7.385 87.0647 7.20833 87.448 6.955 87.808C6.70167 88.1614 6.36833 88.448 5.955 88.668C5.54833 88.888 5.07833 88.998 4.545 88.998C3.925 88.998 3.37167 88.848 2.885 88.548C2.39833 88.248 2.01833 87.818 1.745 87.258C1.47167 86.698 1.335 86.038 1.335 85.278C1.335 84.5247 1.47167 83.868 1.745 83.308C2.01833 82.748 2.39833 82.3214 2.885 82.028C3.37167 81.728 3.925 81.578 4.545 81.578C5.085 81.578 5.54833 81.6847 5.935 81.898C6.32833 82.1047 6.635 82.348 6.855 82.628C7.08167 82.908 7.24833 83.178 7.355 83.438L6.655 83.598C6.48833 83.2047 6.225 82.8714 5.865 82.598C5.505 82.318 5.065 82.178 4.545 82.178C4.05167 82.178 3.61833 82.3014 3.245 82.548C2.87167 82.7947 2.57833 83.1514 2.365 83.618C2.15833 84.0847 2.055 84.638 2.055 85.278C2.055 85.9247 2.15833 86.4847 2.365 86.958C2.57833 87.4247 2.87167 87.7814 3.245 88.028C3.61833 88.2747 4.05167 88.398 4.545 88.398C5.11833 88.398 5.59833 88.2247 5.985 87.878C6.37167 87.5247 6.635 87.0814 6.775 86.548L7.485 86.658ZM10.6472 83.498C11.1272 83.498 11.5505 83.6114 11.9172 83.838C12.2839 84.058 12.5672 84.3747 12.7672 84.788C12.9739 85.2014 13.0772 85.6847 13.0772 86.238C13.0772 86.7914 12.9739 87.2747 12.7672 87.688C12.5672 88.1014 12.2839 88.4214 11.9172 88.648C11.5505 88.868 11.1272 88.978 10.6472 88.978C10.1739 88.978 9.75385 88.868 9.38719 88.648C9.02052 88.4214 8.73385 88.1014 8.52719 87.688C8.32719 87.2747 8.22719 86.7914 8.22719 86.238C8.22719 85.6847 8.32719 85.2014 8.52719 84.788C8.73385 84.3747 9.02052 84.058 9.38719 83.838C9.75385 83.6114 10.1739 83.498 10.6472 83.498ZM10.6472 88.418C11.1672 88.418 11.5872 88.2247 11.9072 87.838C12.2339 87.4447 12.3972 86.9114 12.3972 86.238C12.3972 85.5647 12.2339 85.0314 11.9072 84.638C11.5872 84.2447 11.1672 84.048 10.6472 84.048C10.1272 84.048 9.70719 84.2447 9.38719 84.638C9.06719 85.0314 8.90719 85.5647 8.90719 86.238C8.90719 86.9114 9.06719 87.4447 9.38719 87.838C9.70719 88.2247 10.1272 88.418 10.6472 88.418ZM17.5936 88.058C17.4536 88.318 17.2303 88.538 16.9236 88.718C16.6236 88.8914 16.2803 88.978 15.8936 88.978C15.3336 88.978 14.8836 88.818 14.5436 88.498C14.2036 88.178 14.0336 87.7214 14.0336 87.128V83.618H14.6936V86.858C14.6936 87.398 14.7969 87.7947 15.0036 88.048C15.2169 88.2947 15.5536 88.418 16.0136 88.418C16.4536 88.418 16.8236 88.2647 17.1236 87.958C17.4303 87.6514 17.5836 87.1847 17.5836 86.558V83.618H18.2336V88.858H17.6136V88.058H17.5936ZM20.0449 84.418C20.1783 84.158 20.3983 83.9414 20.7049 83.768C21.0116 83.588 21.3549 83.498 21.7349 83.498C22.2949 83.498 22.7449 83.658 23.0849 83.978C23.4249 84.298 23.5949 84.7514 23.5949 85.338V88.858H22.9449V85.618C22.9449 85.078 22.8383 84.6847 22.6249 84.438C22.4183 84.1847 22.0816 84.058 21.6149 84.058C21.1749 84.058 20.8049 84.2114 20.5049 84.518C20.2049 84.818 20.0549 85.2814 20.0549 85.908V88.858H19.3949V83.618H20.0149V84.418H20.0449ZM26.4781 88.298C26.7048 88.298 26.8915 88.2914 27.0381 88.278V88.858C26.8381 88.8714 26.6315 88.878 26.4181 88.878C26.0915 88.878 25.8381 88.8447 25.6581 88.778C25.4781 88.7047 25.3481 88.5847 25.2681 88.418C25.1881 88.2514 25.1481 88.018 25.1481 87.718V84.138H24.2581V83.618H25.1481V82.088H25.7981V83.618H27.0681V84.138H25.7981V87.578C25.7981 87.858 25.8448 88.048 25.9381 88.148C26.0315 88.248 26.2115 88.298 26.4781 88.298ZM28.5501 84.618H28.5801C28.7134 84.2647 28.9334 83.9914 29.2401 83.798C29.5534 83.598 29.9134 83.498 30.3201 83.498C30.4801 83.498 30.6201 83.5114 30.7401 83.538V84.168C30.6001 84.148 30.4467 84.138 30.2801 84.138C29.7734 84.138 29.3634 84.3147 29.0501 84.668C28.7434 85.0147 28.5901 85.5247 28.5901 86.198V88.858H27.9301V83.618H28.5501V84.618ZM33.8208 88.858C33.5941 89.4247 33.3841 89.848 33.1908 90.128C33.0041 90.4147 32.8208 90.6014 32.6408 90.688C32.4674 90.7747 32.2641 90.818 32.0308 90.818C31.8774 90.818 31.7574 90.808 31.6708 90.788C31.5841 90.7747 31.5341 90.768 31.5208 90.768V90.188C31.5341 90.188 31.5774 90.1947 31.6508 90.208C31.7241 90.228 31.8174 90.238 31.9308 90.238C32.0974 90.238 32.2374 90.2114 32.3508 90.158C32.4708 90.1047 32.5874 89.998 32.7008 89.838C32.8141 89.678 32.9341 89.438 33.0608 89.118L33.1808 88.818L31.0508 83.618H31.7908L33.4908 88.028H33.5208L35.1808 83.618H35.9008L33.8208 88.858ZM37.6324 84.008V84.928H36.7424V84.008H37.6324ZM37.6324 87.948V88.858H36.7424V87.948H37.6324ZM50.106 87.158L49.526 88.858H47.926L50.596 81.718H52.566L55.236 88.858H53.626L53.026 87.158H50.106ZM51.586 82.998H51.546L50.496 86.018H52.636L51.586 82.998ZM59.0033 88.158C58.6166 88.7047 58.0599 88.978 57.3333 88.978C56.7933 88.978 56.3466 88.818 55.9933 88.498C55.6466 88.1714 55.4733 87.688 55.4733 87.048V83.568H56.8733V86.688C56.8733 87.1014 56.9533 87.398 57.1133 87.578C57.2799 87.758 57.5299 87.848 57.8633 87.848C58.1766 87.848 58.4399 87.728 58.6533 87.488C58.8733 87.2414 58.9833 86.8947 58.9833 86.448V83.568H60.3833V88.858H59.0433V88.158H59.0033ZM64.2592 85.168C64.2059 84.9147 64.0826 84.718 63.8892 84.578C63.7026 84.438 63.4792 84.368 63.2192 84.368C62.9592 84.368 62.7492 84.4247 62.5892 84.538C62.4292 84.6447 62.3492 84.798 62.3492 84.998C62.3492 85.1714 62.4259 85.298 62.5792 85.378C62.7326 85.458 62.9659 85.5247 63.2792 85.578L63.8192 85.658C64.4059 85.758 64.8626 85.9214 65.1892 86.148C65.5226 86.3747 65.6892 86.7547 65.6892 87.288C65.6892 87.848 65.4659 88.2714 65.0192 88.558C64.5726 88.838 63.9859 88.978 63.2592 88.978C62.5659 88.978 61.9926 88.8314 61.5392 88.538C61.0926 88.238 60.8259 87.8314 60.7392 87.318L62.0492 87.128C62.1159 87.4414 62.2526 87.6747 62.4592 87.828C62.6726 87.9814 62.9459 88.058 63.2792 88.058C63.5792 88.058 63.8192 87.9947 63.9992 87.868C64.1792 87.7414 64.2692 87.568 64.2692 87.348C64.2692 87.168 64.1859 87.0314 64.0192 86.938C63.8526 86.8447 63.6026 86.7714 63.2692 86.718L62.6892 86.628C62.1626 86.5414 61.7392 86.3847 61.4192 86.158C61.1059 85.9314 60.9492 85.5647 60.9492 85.058C60.9492 84.7314 61.0492 84.4447 61.2492 84.198C61.4559 83.9514 61.7326 83.7647 62.0792 83.638C62.4259 83.5047 62.8059 83.438 63.2192 83.438C63.8326 83.438 64.3526 83.5814 64.7792 83.868C65.2126 84.1547 65.4692 84.528 65.5492 84.988L64.2592 85.168ZM69.1183 87.768V88.858C68.9316 88.8714 68.6249 88.878 68.1983 88.878C67.8183 88.878 67.5183 88.8447 67.2983 88.778C67.0783 88.7047 66.9149 88.578 66.8083 88.398C66.7016 88.2114 66.6483 87.9447 66.6483 87.598V84.508H65.8083V83.568H66.6483V82.088H68.0483V83.568H69.1583V84.508H68.0483V87.248C68.0483 87.468 68.0916 87.6114 68.1783 87.678C68.2716 87.738 68.4349 87.768 68.6683 87.768H69.1183ZM70.993 84.378H71.033C71.1796 84.0914 71.3863 83.8647 71.653 83.698C71.9263 83.5247 72.2496 83.438 72.623 83.438C72.7563 83.438 72.8796 83.4547 72.993 83.488V84.788C72.953 84.788 72.873 84.7814 72.753 84.768C72.6396 84.7547 72.5363 84.748 72.443 84.748C71.5163 84.748 71.053 85.228 71.053 86.188V88.858H69.653V83.568H70.993V84.378ZM76.7758 88.858C76.7291 88.8047 76.6924 88.7147 76.6658 88.588C76.6391 88.4547 76.6258 88.298 76.6258 88.118C76.4791 88.3914 76.2424 88.6047 75.9158 88.758C75.5958 88.9047 75.2491 88.978 74.8758 88.978C74.5624 88.978 74.2691 88.9147 73.9958 88.788C73.7291 88.6614 73.5124 88.4814 73.3458 88.248C73.1858 88.008 73.1058 87.728 73.1058 87.408C73.1058 86.868 73.2891 86.468 73.6558 86.208C74.0224 85.948 74.5724 85.7747 75.3058 85.688C75.8124 85.6214 76.1558 85.548 76.3358 85.468C76.5224 85.3814 76.6158 85.2547 76.6158 85.088C76.6158 84.888 76.5391 84.7314 76.3858 84.618C76.2324 84.498 76.0024 84.438 75.6958 84.438C75.4424 84.438 75.2158 84.5047 75.0158 84.638C74.8224 84.7714 74.6858 84.968 74.6058 85.228L73.3158 85.028C73.4291 84.5347 73.7024 84.148 74.1358 83.868C74.5691 83.5814 75.0991 83.438 75.7258 83.438C76.4924 83.438 77.0658 83.5914 77.4458 83.898C77.8258 84.2047 78.0158 84.6214 78.0158 85.148V87.798C78.0158 88.1047 78.0224 88.3347 78.0358 88.488C78.0558 88.6347 78.0958 88.758 78.1558 88.858H76.7758ZM76.6158 86.248C76.5358 86.3147 76.3991 86.3714 76.2058 86.418C76.0191 86.458 75.7724 86.498 75.4658 86.538C75.1858 86.5847 74.9591 86.6747 74.7858 86.808C74.6191 86.9347 74.5358 87.1147 74.5358 87.348C74.5358 87.5614 74.6024 87.728 74.7358 87.848C74.8758 87.9614 75.0658 88.018 75.3058 88.018C75.5124 88.018 75.7158 87.9747 75.9158 87.888C76.1158 87.8014 76.2824 87.668 76.4158 87.488C76.5491 87.3014 76.6158 87.0714 76.6158 86.798V86.248ZM80.1059 81.618V88.858H78.7059V81.618H80.1059ZM82.2251 83.568V88.858H80.8251V83.568H82.2251ZM82.2251 81.618V82.818H80.8251V81.618H82.2251ZM86.4242 88.858C86.3776 88.8047 86.3409 88.7147 86.3142 88.588C86.2876 88.4547 86.2742 88.298 86.2742 88.118C86.1276 88.3914 85.8909 88.6047 85.5642 88.758C85.2442 88.9047 84.8976 88.978 84.5242 88.978C84.2109 88.978 83.9176 88.9147 83.6442 88.788C83.3776 88.6614 83.1609 88.4814 82.9942 88.248C82.8342 88.008 82.7542 87.728 82.7542 87.408C82.7542 86.868 82.9376 86.468 83.3042 86.208C83.6709 85.948 84.2209 85.7747 84.9542 85.688C85.4609 85.6214 85.8042 85.548 85.9842 85.468C86.1709 85.3814 86.2642 85.2547 86.2642 85.088C86.2642 84.888 86.1876 84.7314 86.0342 84.618C85.8809 84.498 85.6509 84.438 85.3442 84.438C85.0909 84.438 84.8642 84.5047 84.6642 84.638C84.4709 84.7714 84.3342 84.968 84.2542 85.228L82.9642 85.028C83.0776 84.5347 83.3509 84.148 83.7842 83.868C84.2176 83.5814 84.7476 83.438 85.3742 83.438C86.1409 83.438 86.7142 83.5914 87.0942 83.898C87.4742 84.2047 87.6642 84.6214 87.6642 85.148V87.798C87.6642 88.1047 87.6709 88.3347 87.6842 88.488C87.7042 88.6347 87.7442 88.758 87.8042 88.858H86.4242ZM86.2642 86.248C86.1842 86.3147 86.0476 86.3714 85.8542 86.418C85.6676 86.458 85.4209 86.498 85.1142 86.538C84.8342 86.5847 84.6076 86.6747 84.4342 86.808C84.2676 86.9347 84.1842 87.1147 84.1842 87.348C84.1842 87.5614 84.2509 87.728 84.3842 87.848C84.5242 87.9614 84.7142 88.018 84.9542 88.018C85.1609 88.018 85.3642 87.9747 85.5642 87.888C85.7642 87.8014 85.9309 87.668 86.0642 87.488C86.1976 87.3014 86.2642 87.0714 86.2642 86.798V86.248Z" fill="white"/>
<path d="M8.225 106.858H7.555V100.778H7.525L5.155 106.858H4.585L2.215 100.778H2.195V106.858H1.535V99.718H2.515L4.885 105.828H4.905L7.255 99.718H8.225V106.858ZM10.1428 101.618V106.858H9.48281V101.618H10.1428ZM10.1628 99.618V100.428H9.45281V99.618H10.1628ZM13.4783 106.418C14.2516 106.418 14.7883 105.998 15.0883 105.158L15.7683 105.258C15.6216 105.718 15.3616 106.121 14.9883 106.468C14.6216 106.808 14.1183 106.978 13.4783 106.978C13.0116 106.978 12.5983 106.868 12.2383 106.648C11.8783 106.421 11.5983 106.101 11.3983 105.688C11.1983 105.275 11.0983 104.791 11.0983 104.238C11.0983 103.685 11.1983 103.201 11.3983 102.788C11.6049 102.375 11.8883 102.058 12.2483 101.838C12.6149 101.611 13.0316 101.498 13.4983 101.498C14.1049 101.498 14.5749 101.648 14.9083 101.948C15.2483 102.248 15.4916 102.561 15.6383 102.888L15.0083 103.098C14.8683 102.825 14.6883 102.581 14.4683 102.368C14.2549 102.155 13.9316 102.048 13.4983 102.048C12.9783 102.048 12.5616 102.245 12.2483 102.638C11.9349 103.031 11.7783 103.565 11.7783 104.238C11.7783 104.911 11.9316 105.445 12.2383 105.838C12.5516 106.225 12.9649 106.418 13.4783 106.418ZM17.2122 102.618H17.2422C17.3755 102.265 17.5955 101.991 17.9022 101.798C18.2155 101.598 18.5755 101.498 18.9822 101.498C19.1422 101.498 19.2822 101.511 19.4022 101.538V102.168C19.2622 102.148 19.1089 102.138 18.9422 102.138C18.4355 102.138 18.0255 102.315 17.7122 102.668C17.4055 103.015 17.2522 103.525 17.2522 104.198V106.858H16.5922V101.618H17.2122V102.618ZM22.2097 101.498C22.6897 101.498 23.113 101.611 23.4797 101.838C23.8464 102.058 24.1297 102.375 24.3297 102.788C24.5364 103.201 24.6397 103.685 24.6397 104.238C24.6397 104.791 24.5364 105.275 24.3297 105.688C24.1297 106.101 23.8464 106.421 23.4797 106.648C23.113 106.868 22.6897 106.978 22.2097 106.978C21.7364 106.978 21.3164 106.868 20.9497 106.648C20.583 106.421 20.2964 106.101 20.0897 105.688C19.8897 105.275 19.7897 104.791 19.7897 104.238C19.7897 103.685 19.8897 103.201 20.0897 102.788C20.2964 102.375 20.583 102.058 20.9497 101.838C21.3164 101.611 21.7364 101.498 22.2097 101.498ZM22.2097 106.418C22.7297 106.418 23.1497 106.225 23.4697 105.838C23.7964 105.445 23.9597 104.911 23.9597 104.238C23.9597 103.565 23.7964 103.031 23.4697 102.638C23.1497 102.245 22.7297 102.048 22.2097 102.048C21.6897 102.048 21.2697 102.245 20.9497 102.638C20.6297 103.031 20.4697 103.565 20.4697 104.238C20.4697 104.911 20.6297 105.445 20.9497 105.838C21.2697 106.225 21.6897 106.418 22.2097 106.418ZM28.7061 103.098C28.6394 102.785 28.4728 102.531 28.2061 102.338C27.9461 102.145 27.6394 102.048 27.2861 102.048C26.9061 102.048 26.5994 102.131 26.3661 102.298C26.1394 102.465 26.0261 102.688 26.0261 102.968C26.0261 103.228 26.1261 103.418 26.3261 103.538C26.5261 103.658 26.8094 103.748 27.1761 103.808L27.7561 103.908C28.2961 104.001 28.7128 104.151 29.0061 104.358C29.3061 104.558 29.4561 104.898 29.4561 105.378C29.4561 105.885 29.2594 106.278 28.8661 106.558C28.4794 106.838 27.9794 106.978 27.3661 106.978C26.7661 106.978 26.2628 106.831 25.8561 106.538C25.4561 106.238 25.2194 105.841 25.1461 105.348L25.7561 105.208C25.8228 105.595 26.0028 105.895 26.2961 106.108C26.5894 106.321 26.9461 106.428 27.3661 106.428C27.7794 106.428 28.1161 106.338 28.3761 106.158C28.6428 105.971 28.7761 105.721 28.7761 105.408C28.7761 105.115 28.6694 104.905 28.4561 104.778C28.2428 104.651 27.9228 104.548 27.4961 104.468L26.9261 104.378C26.4461 104.291 26.0628 104.148 25.7761 103.948C25.4894 103.741 25.3461 103.415 25.3461 102.968C25.3461 102.528 25.5261 102.175 25.8861 101.908C26.2461 101.635 26.7128 101.498 27.2861 101.498C27.6328 101.498 27.9528 101.565 28.2461 101.698C28.5394 101.825 28.7794 102.001 28.9661 102.228C29.1528 102.448 29.2661 102.695 29.3061 102.968L28.7061 103.098ZM31.0022 101.618V106.858H30.3422V101.618H31.0022ZM31.0222 99.618V100.428H30.3122V99.618H31.0222ZM33.9977 106.298C34.2243 106.298 34.411 106.291 34.5577 106.278V106.858C34.3577 106.871 34.151 106.878 33.9377 106.878C33.611 106.878 33.3577 106.845 33.1777 106.778C32.9977 106.705 32.8677 106.585 32.7877 106.418C32.7077 106.251 32.6677 106.018 32.6677 105.718V102.138H31.7777V101.618H32.6677V100.088H33.3177V101.618H34.5877V102.138H33.3177V105.578C33.3177 105.858 33.3643 106.048 33.4577 106.148C33.551 106.248 33.731 106.298 33.9977 106.298ZM39.645 105.398C39.4917 105.845 39.2283 106.221 38.855 106.528C38.4817 106.828 37.975 106.978 37.335 106.978C36.875 106.978 36.4683 106.868 36.115 106.648C35.7617 106.421 35.485 106.101 35.285 105.688C35.085 105.268 34.985 104.781 34.985 104.228C34.985 103.681 35.085 103.201 35.285 102.788C35.485 102.375 35.7617 102.058 36.115 101.838C36.4683 101.611 36.875 101.498 37.335 101.498C37.8017 101.498 38.215 101.615 38.575 101.848C38.9417 102.075 39.2217 102.408 39.415 102.848C39.615 103.281 39.705 103.798 39.685 104.398H35.665C35.6783 104.998 35.8383 105.485 36.145 105.858C36.4517 106.231 36.8483 106.418 37.335 106.418C37.7883 106.418 38.1483 106.311 38.415 106.098C38.6817 105.878 38.8683 105.615 38.975 105.308L39.645 105.398ZM37.335 102.048C36.8617 102.048 36.475 102.221 36.175 102.568C35.875 102.908 35.7083 103.335 35.675 103.848H39.005C38.9717 103.335 38.8017 102.908 38.495 102.568C38.195 102.221 37.8083 102.048 37.335 102.048ZM41.7047 102.008V102.928H40.8147V102.008H41.7047ZM41.7047 105.948V106.858H40.8147V105.948H41.7047ZM53.3597 105.318C53.213 105.778 52.9464 106.171 52.5597 106.498C52.173 106.818 51.6264 106.978 50.9197 106.978C50.433 106.978 49.9997 106.865 49.6197 106.638C49.2464 106.405 48.9564 106.081 48.7497 105.668C48.543 105.248 48.4397 104.768 48.4397 104.228C48.4397 103.681 48.5397 103.198 48.7397 102.778C48.9464 102.358 49.233 102.035 49.5997 101.808C49.973 101.575 50.4097 101.458 50.9097 101.458C51.3964 101.458 51.8264 101.568 52.1997 101.788C52.5797 102.001 52.873 102.311 53.0797 102.718C53.293 103.118 53.3997 103.595 53.3997 104.148C53.3997 104.288 53.3964 104.395 53.3897 104.468H49.4697C49.483 104.961 49.6197 105.365 49.8797 105.678C50.1464 105.991 50.493 106.148 50.9197 106.148C51.3264 106.148 51.6397 106.055 51.8597 105.868C52.0797 105.675 52.2364 105.451 52.3297 105.198L53.3597 105.318ZM50.9097 102.288C50.4964 102.288 50.1664 102.425 49.9197 102.698C49.6797 102.965 49.5364 103.295 49.4897 103.688H52.3597C52.313 103.288 52.1664 102.955 51.9197 102.688C51.673 102.421 51.3364 102.288 50.9097 102.288ZM55.0882 102.278C55.2815 101.998 55.5182 101.791 55.7982 101.658C56.0782 101.525 56.3882 101.458 56.7282 101.458C57.0615 101.458 57.3682 101.528 57.6482 101.668C57.9349 101.801 58.1649 102.011 58.3382 102.298C58.5115 102.578 58.5982 102.931 58.5982 103.358V106.858H57.5782V103.668C57.5782 103.181 57.4815 102.835 57.2882 102.628C57.0949 102.421 56.8015 102.318 56.4082 102.318C56.1815 102.318 55.9682 102.381 55.7682 102.508C55.5682 102.635 55.4049 102.821 55.2782 103.068C55.1582 103.315 55.0982 103.611 55.0982 103.958V106.858H54.0782V101.578H55.0482V102.278H55.0882ZM64.1605 105.318C64.0138 105.778 63.7471 106.171 63.3605 106.498C62.9738 106.818 62.4271 106.978 61.7205 106.978C61.2338 106.978 60.8005 106.865 60.4205 106.638C60.0471 106.405 59.7571 106.081 59.5505 105.668C59.3438 105.248 59.2405 104.768 59.2405 104.228C59.2405 103.681 59.3405 103.198 59.5405 102.778C59.7471 102.358 60.0338 102.035 60.4005 101.808C60.7738 101.575 61.2105 101.458 61.7105 101.458C62.1971 101.458 62.6271 101.568 63.0005 101.788C63.3805 102.001 63.6738 102.311 63.8805 102.718C64.0938 103.118 64.2005 103.595 64.2005 104.148C64.2005 104.288 64.1971 104.395 64.1905 104.468H60.2705C60.2838 104.961 60.4205 105.365 60.6805 105.678C60.9471 105.991 61.2938 106.148 61.7205 106.148C62.1271 106.148 62.4405 106.055 62.6605 105.868C62.8805 105.675 63.0371 105.451 63.1305 105.198L64.1605 105.318ZM61.7105 102.288C61.2971 102.288 60.9671 102.425 60.7205 102.698C60.4805 102.965 60.3371 103.295 60.2905 103.688H63.1605C63.1138 103.288 62.9671 102.955 62.7205 102.688C62.4738 102.421 62.1371 102.288 61.7105 102.288ZM65.849 102.378H65.889C66.029 102.111 66.2357 101.891 66.509 101.718C66.7823 101.545 67.099 101.458 67.459 101.458C67.6257 101.458 67.7823 101.475 67.929 101.508V102.488C67.7423 102.461 67.569 102.448 67.409 102.448C66.949 102.448 66.5823 102.578 66.309 102.838C66.0357 103.091 65.899 103.498 65.899 104.058V106.858H64.879V101.578H65.849V102.378ZM73.2139 106.488C73.2139 107.288 72.9872 107.875 72.5339 108.248C72.0806 108.628 71.4839 108.818 70.7439 108.818C70.1506 108.818 69.6406 108.681 69.2139 108.408C68.7939 108.135 68.5039 107.715 68.3439 107.148L69.3239 106.938C69.4239 107.311 69.5906 107.578 69.8239 107.738C70.0639 107.898 70.3706 107.978 70.7439 107.978C71.7106 107.978 72.1939 107.465 72.1939 106.438V105.908H72.1539C72.0072 106.115 71.8006 106.278 71.5339 106.398C71.2672 106.518 70.9606 106.578 70.6139 106.578C70.1606 106.578 69.7539 106.471 69.3939 106.258C69.0406 106.045 68.7639 105.745 68.5639 105.358C68.3639 104.971 68.2639 104.525 68.2639 104.018C68.2639 103.518 68.3639 103.075 68.5639 102.688C68.7639 102.295 69.0406 101.991 69.3939 101.778C69.7539 101.565 70.1606 101.458 70.6139 101.458C70.9739 101.458 71.2939 101.525 71.5739 101.658C71.8539 101.785 72.0639 101.961 72.2039 102.188H72.2439V101.578H73.2139V106.488ZM70.7839 105.768C71.2306 105.768 71.5872 105.608 71.8539 105.288C72.1206 104.968 72.2539 104.545 72.2539 104.018C72.2539 103.498 72.1206 103.081 71.8539 102.768C71.5872 102.448 71.2306 102.288 70.7839 102.288C70.3372 102.288 69.9772 102.448 69.7039 102.768C69.4372 103.081 69.3039 103.498 69.3039 104.018C69.3039 104.538 69.4372 104.961 69.7039 105.288C69.9772 105.608 70.3372 105.768 70.7839 105.768ZM76.7198 106.858C76.5132 107.405 76.3098 107.818 76.1098 108.098C75.9098 108.385 75.7032 108.575 75.4898 108.668C75.2765 108.768 75.0232 108.818 74.7298 108.818C74.4498 108.818 74.2432 108.808 74.1098 108.788V107.888C74.1298 107.888 74.1765 107.895 74.2498 107.908C74.3298 107.928 74.4432 107.938 74.5898 107.938C74.8565 107.938 75.0565 107.871 75.1898 107.738C75.3232 107.605 75.4698 107.355 75.6298 106.988L75.7098 106.788L73.5898 101.578H74.6898L76.1798 105.578H76.2198L77.6198 101.578H78.7198L76.7198 106.858ZM85.0568 106.858H83.9168L82.7468 102.948H82.7068L81.5268 106.858H80.4368L78.7168 101.578H79.8368L80.9968 105.618H81.0368L82.1768 101.578H83.3468L84.4868 105.618H84.5268L85.6868 101.578H86.7668L85.0568 106.858ZM91.6409 105.318C91.4943 105.778 91.2276 106.171 90.8409 106.498C90.4543 106.818 89.9076 106.978 89.2009 106.978C88.7143 106.978 88.2809 106.865 87.9009 106.638C87.5276 106.405 87.2376 106.081 87.0309 105.668C86.8243 105.248 86.7209 104.768 86.7209 104.228C86.7209 103.681 86.8209 103.198 87.0209 102.778C87.2276 102.358 87.5143 102.035 87.8809 101.808C88.2543 101.575 88.6909 101.458 89.1909 101.458C89.6776 101.458 90.1076 101.568 90.4809 101.788C90.8609 102.001 91.1543 102.311 91.3609 102.718C91.5743 103.118 91.6809 103.595 91.6809 104.148C91.6809 104.288 91.6776 104.395 91.6709 104.468H87.7509C87.7643 104.961 87.9009 105.365 88.1609 105.678C88.4276 105.991 88.7743 106.148 89.2009 106.148C89.6076 106.148 89.9209 106.055 90.1409 105.868C90.3609 105.675 90.5176 105.451 90.6109 105.198L91.6409 105.318ZM89.1909 102.288C88.7776 102.288 88.4476 102.425 88.2009 102.698C87.9609 102.965 87.8176 103.295 87.7709 103.688H90.6409C90.5943 103.288 90.4476 102.955 90.2009 102.688C89.9543 102.421 89.6176 102.288 89.1909 102.288ZM95.0095 101.458C95.4761 101.458 95.8895 101.575 96.2495 101.808C96.6161 102.035 96.8995 102.358 97.0995 102.778C97.3061 103.191 97.4095 103.671 97.4095 104.218C97.4095 104.765 97.3061 105.248 97.0995 105.668C96.8995 106.081 96.6161 106.405 96.2495 106.638C95.8895 106.865 95.4761 106.978 95.0095 106.978C94.6361 106.978 94.3028 106.908 94.0095 106.768C93.7228 106.621 93.5095 106.425 93.3695 106.178H93.3295V106.858H92.3595V99.618H93.3795V102.198H93.4195C93.5661 101.971 93.7761 101.791 94.0495 101.658C94.3295 101.525 94.6495 101.458 95.0095 101.458ZM94.8295 106.148C95.3028 106.148 95.6761 105.978 95.9495 105.638C96.2295 105.291 96.3695 104.818 96.3695 104.218C96.3695 103.618 96.2295 103.148 95.9495 102.808C95.6761 102.461 95.3028 102.288 94.8295 102.288C94.3695 102.288 93.9995 102.461 93.7195 102.808C93.4461 103.155 93.3095 103.625 93.3095 104.218C93.3095 104.811 93.4461 105.281 93.7195 105.628C93.9995 105.975 94.3695 106.148 94.8295 106.148ZM99.3919 105.618V106.858H98.1519V105.618H99.3919ZM102.689 101.458C103.202 101.458 103.652 101.575 104.039 101.808C104.426 102.035 104.722 102.358 104.929 102.778C105.142 103.191 105.249 103.671 105.249 104.218C105.249 104.765 105.142 105.248 104.929 105.668C104.722 106.081 104.426 106.405 104.039 106.638C103.652 106.865 103.202 106.978 102.689 106.978C102.176 106.978 101.726 106.865 101.339 106.638C100.952 106.405 100.652 106.081 100.439 105.668C100.232 105.248 100.129 104.765 100.129 104.218C100.129 103.671 100.232 103.191 100.439 102.778C100.652 102.358 100.952 102.035 101.339 101.808C101.726 101.575 102.176 101.458 102.689 101.458ZM102.689 106.148C103.156 106.148 103.522 105.978 103.789 105.638C104.062 105.291 104.199 104.818 104.199 104.218C104.199 103.618 104.062 103.148 103.789 102.808C103.522 102.461 103.156 102.288 102.689 102.288C102.222 102.288 101.852 102.461 101.579 102.808C101.306 103.148 101.169 103.618 101.169 104.218C101.169 104.818 101.306 105.291 101.579 105.638C101.852 105.978 102.222 106.148 102.689 106.148ZM106.904 102.378H106.944C107.084 102.111 107.29 101.891 107.564 101.718C107.837 101.545 108.154 101.458 108.514 101.458C108.68 101.458 108.837 101.475 108.984 101.508V102.488C108.797 102.461 108.624 102.448 108.464 102.448C108.004 102.448 107.637 102.578 107.364 102.838C107.09 103.091 106.954 103.498 106.954 104.058V106.858H105.934V101.578H106.904V102.378ZM114.269 106.488C114.269 107.288 114.042 107.875 113.589 108.248C113.135 108.628 112.539 108.818 111.799 108.818C111.205 108.818 110.695 108.681 110.269 108.408C109.849 108.135 109.559 107.715 109.399 107.148L110.379 106.938C110.479 107.311 110.645 107.578 110.879 107.738C111.119 107.898 111.425 107.978 111.799 107.978C112.765 107.978 113.249 107.465 113.249 106.438V105.908H113.209C113.062 106.115 112.855 106.278 112.589 106.398C112.322 106.518 112.015 106.578 111.669 106.578C111.215 106.578 110.809 106.471 110.449 106.258C110.095 106.045 109.819 105.745 109.619 105.358C109.419 104.971 109.319 104.525 109.319 104.018C109.319 103.518 109.419 103.075 109.619 102.688C109.819 102.295 110.095 101.991 110.449 101.778C110.809 101.565 111.215 101.458 111.669 101.458C112.029 101.458 112.349 101.525 112.629 101.658C112.909 101.785 113.119 101.961 113.259 102.188H113.299V101.578H114.269V106.488ZM111.839 105.768C112.285 105.768 112.642 105.608 112.909 105.288C113.175 104.968 113.309 104.545 113.309 104.018C113.309 103.498 113.175 103.081 112.909 102.768C112.642 102.448 112.285 102.288 111.839 102.288C111.392 102.288 111.032 102.448 110.759 102.768C110.492 103.081 110.359 103.498 110.359 104.018C110.359 104.538 110.492 104.961 110.759 105.288C111.032 105.608 111.392 105.768 111.839 105.768ZM115.735 106.858H114.705L117.295 99.718H118.335L115.735 106.858ZM121.425 106.858C121.379 106.811 121.339 106.725 121.305 106.598C121.279 106.471 121.265 106.325 121.265 106.158C121.105 106.431 120.855 106.638 120.515 106.778C120.182 106.911 119.839 106.978 119.485 106.978C119.172 106.978 118.882 106.915 118.615 106.788C118.349 106.655 118.135 106.471 117.975 106.238C117.822 105.998 117.745 105.718 117.745 105.398C117.745 104.858 117.932 104.461 118.305 104.208C118.679 103.948 119.242 103.778 119.995 103.698C120.482 103.651 120.812 103.581 120.985 103.488C121.165 103.395 121.255 103.261 121.255 103.088C121.255 102.561 120.885 102.298 120.145 102.298C119.859 102.298 119.599 102.375 119.365 102.528C119.132 102.675 118.969 102.895 118.875 103.188L117.945 102.968C118.059 102.501 118.319 102.135 118.725 101.868C119.132 101.595 119.619 101.458 120.185 101.458C120.905 101.458 121.432 101.608 121.765 101.908C122.105 102.201 122.275 102.588 122.275 103.068V105.718C122.275 106.051 122.282 106.298 122.295 106.458C122.315 106.611 122.355 106.745 122.415 106.858H121.425ZM121.255 104.138C121.182 104.218 121.025 104.285 120.785 104.338C120.552 104.385 120.252 104.431 119.885 104.478C119.572 104.518 119.309 104.615 119.095 104.768C118.889 104.915 118.785 105.125 118.785 105.398C118.785 105.651 118.865 105.845 119.025 105.978C119.185 106.105 119.405 106.168 119.685 106.168C119.939 106.168 120.185 106.121 120.425 106.028C120.665 105.928 120.862 105.775 121.015 105.568C121.175 105.355 121.255 105.091 121.255 104.778V104.138ZM127.832 105.318C127.686 105.778 127.419 106.171 127.032 106.498C126.646 106.818 126.099 106.978 125.392 106.978C124.906 106.978 124.472 106.865 124.092 106.638C123.719 106.405 123.429 106.081 123.222 105.668C123.016 105.248 122.912 104.768 122.912 104.228C122.912 103.681 123.012 103.198 123.212 102.778C123.419 102.358 123.706 102.035 124.072 101.808C124.446 101.575 124.882 101.458 125.382 101.458C125.869 101.458 126.299 101.568 126.672 101.788C127.052 102.001 127.346 102.311 127.552 102.718C127.766 103.118 127.872 103.595 127.872 104.148C127.872 104.288 127.869 104.395 127.862 104.468H123.942C123.956 104.961 124.092 105.365 124.352 105.678C124.619 105.991 124.966 106.148 125.392 106.148C125.799 106.148 126.112 106.055 126.332 105.868C126.552 105.675 126.709 105.451 126.802 105.198L127.832 105.318ZM125.382 102.288C124.969 102.288 124.639 102.425 124.392 102.698C124.152 102.965 124.009 103.295 123.962 103.688H126.832C126.786 103.288 126.639 102.955 126.392 102.688C126.146 102.421 125.809 102.288 125.382 102.288ZM134.401 101.458C134.708 101.458 134.994 101.528 135.261 101.668C135.534 101.801 135.754 102.011 135.921 102.298C136.088 102.585 136.171 102.938 136.171 103.358V106.858H135.151V103.668C135.151 103.188 135.061 102.845 134.881 102.638C134.701 102.425 134.431 102.318 134.071 102.318C133.858 102.318 133.661 102.381 133.481 102.508C133.301 102.635 133.154 102.821 133.041 103.068C132.928 103.308 132.871 103.601 132.871 103.948V106.858H131.851V103.668C131.851 103.188 131.761 102.845 131.581 102.638C131.401 102.425 131.131 102.318 130.771 102.318C130.558 102.318 130.361 102.381 130.181 102.508C130.001 102.635 129.854 102.821 129.741 103.068C129.628 103.315 129.571 103.611 129.571 103.958V106.858H128.551V101.578H129.521V102.288H129.561C129.754 102.001 129.981 101.791 130.241 101.658C130.508 101.525 130.794 101.458 131.101 101.458C131.428 101.458 131.728 101.531 132.001 101.678C132.274 101.818 132.484 102.035 132.631 102.328C132.871 102.035 133.131 101.818 133.411 101.678C133.698 101.531 134.028 101.458 134.401 101.458ZM139.369 101.458C139.882 101.458 140.332 101.575 140.719 101.808C141.105 102.035 141.402 102.358 141.609 102.778C141.822 103.191 141.929 103.671 141.929 104.218C141.929 104.765 141.822 105.248 141.609 105.668C141.402 106.081 141.105 106.405 140.719 106.638C140.332 106.865 139.882 106.978 139.369 106.978C138.855 106.978 138.405 106.865 138.019 106.638C137.632 106.405 137.332 106.081 137.119 105.668C136.912 105.248 136.809 104.765 136.809 104.218C136.809 103.671 136.912 103.191 137.119 102.778C137.332 102.358 137.632 102.035 138.019 101.808C138.405 101.575 138.855 101.458 139.369 101.458ZM139.369 106.148C139.835 106.148 140.202 105.978 140.469 105.638C140.742 105.291 140.879 104.818 140.879 104.218C140.879 103.618 140.742 103.148 140.469 102.808C140.202 102.461 139.835 102.288 139.369 102.288C138.902 102.288 138.532 102.461 138.259 102.808C137.985 103.148 137.849 103.618 137.849 104.218C137.849 104.818 137.985 105.291 138.259 105.638C138.532 105.978 138.902 106.148 139.369 106.148Z" fill="white"/>
<path d="M48.1797 107.858H142.189V108.358H48.1797V107.858Z" fill="white"/>
<a href="https://energyweb.org/aemo/">
<rect fill="black" fill-opacity="0" x="47.3047" y="1.1" width="94.0091" height="11.8"/>
</a>
</g>
</svg>
