<svg width="238" height="77" fill="none" xmlns="http://www.w3.org/2000/svg">
  <rect width="114" height="25" rx="12.5" fill="#BF93FF"/>
  <path d="M18.264 9.128c.88 0 1.573.24 2.08.72.512.48.768 1.192.768 2.136 0 .944-.256 1.656-.768 2.136-.507.48-1.2.72-2.08.72H16V9.128h2.264zm-.176 4.76c1.205 0 1.808-.635 1.808-1.904 0-1.27-.603-1.904-1.808-1.904H17.2v3.808h.888zm8.292-2.44v.92h-2.825v1.488h2.96v.984h-4.16V9.128h4.16v.952h-2.96v1.368h2.824zm3.816 1.304h-1.16v2.088h-1.2V9.128h2.784c.656 0 1.165.163 1.528.488.362.32.544.76.544 1.32 0 .427-.107.787-.32 1.08-.214.293-.518.501-.912.624l1.36 2.2h-1.4l-1.224-2.088zm.24-.952c.336 0 .592-.075.768-.224.176-.15.264-.363.264-.64 0-.272-.088-.483-.264-.632-.176-.15-.432-.224-.768-.224h-1.4v1.72h1.4zm11.641 3.04h-1.128v-4.224h-.032l-1.392 4.224h-.896l-1.392-4.224h-.032v4.224h-1.096V9.128h1.752l1.216 3.936h.032l1.216-3.936h1.752v5.712zm2.809-1.36l-.472 1.36h-1.272l2.136-5.712h1.576l2.136 5.712h-1.296l-.472-1.36h-2.336zm1.176-3.328h-.032l-.832 2.416h1.712l-.848-2.416zm7.632 4.688l-2.512-4.096h-.032v4.096h-1.096V9.128h1.36l2.464 4.024h.032V9.128h1.104v5.712h-1.32zm4.129-1.36l-.472 1.36H56.08l2.136-5.712h1.576l2.136 5.712h-1.296l-.472-1.36h-2.336zM59 10.152h-.032l-.832 2.416h1.712L59 10.152zm7.96 4.688v-.672c-.41.533-1 .8-1.768.8a2.87 2.87 0 01-1.456-.368 2.574 2.574 0 01-1-1.04c-.235-.453-.352-.981-.352-1.584 0-.603.117-1.128.352-1.576a2.52 2.52 0 011-1.032A2.867 2.867 0 0165.192 9c.64 0 1.186.16 1.64.48.458.32.776.752.952 1.296l-1.2.144a1.539 1.539 0 00-.536-.704 1.451 1.451 0 00-.856-.248c-.48 0-.864.173-1.152.52-.288.347-.432.843-.432 1.488 0 .656.144 1.157.432 1.504.288.347.672.52 1.152.52a1.46 1.46 0 001.504-1.256h-1.4v-.904h2.512v3h-.848zm6.152-3.392v.92h-2.824v1.488h2.96v.984h-4.16V9.128h4.16v.952h-2.96v1.368h2.824zm7.425 3.392h-1.128v-4.224h-.032l-1.392 4.224h-.896l-1.392-4.224h-.032v4.224h-1.096V9.128h1.752l1.216 3.936h.032l1.216-3.936h1.752v5.712zm5.489-3.392v.92h-2.824v1.488h2.96v.984h-4.16V9.128h4.16v.952h-2.96v1.368h2.824zm5.097 3.392l-2.513-4.096h-.031v4.096h-1.096V9.128h1.36l2.463 4.024h.032V9.128h1.105v5.712h-1.32zm5.489-4.704v4.704h-1.2v-4.704h-1.848V9.128h4.896v1.008h-1.848z" fill="#452E66"/>
  <path d="M2.91 41.16c.727 0 1.29.183 1.69.55.4.367.6.887.6 1.56s-.2 1.193-.6 1.56c-.4.367-.963.55-1.69.55H.7v2.92H0v-7.14h2.91zm-.11 3.62c.547 0 .963-.123 1.25-.37.287-.253.43-.633.43-1.14 0-.507-.143-.883-.43-1.13-.287-.253-.703-.38-1.25-.38H.7v3.02h2.1zm3.922-.72h.03a1.61 1.61 0 01.66-.82c.313-.2.673-.3 1.08-.3.16 0 .3.013.42.04v.63a3.26 3.26 0 00-.46-.03c-.507 0-.917.177-1.23.53-.307.347-.46.857-.46 1.53v2.66h-.66v-5.24h.62v1zm4.998-1.12c.48 0 .903.113 1.27.34.366.22.65.537.85.95.206.413.31.897.31 1.45 0 .553-.104 1.037-.31 1.45a2.26 2.26 0 01-.85.96c-.367.22-.79.33-1.27.33-.474 0-.894-.11-1.26-.33a2.317 2.317 0 01-.86-.96c-.2-.413-.3-.897-.3-1.45 0-.553.1-1.037.3-1.45a2.25 2.25 0 01.86-.95 2.34 2.34 0 011.26-.34zm0 4.92c.52 0 .94-.193 1.26-.58.326-.393.49-.927.49-1.6s-.164-1.207-.49-1.6c-.32-.393-.74-.59-1.26-.59s-.94.197-1.26.59c-.32.393-.48.927-.48 1.6s.16 1.207.48 1.6c.32.387.74.58 1.26.58zm3.006 1.82c.2 0 .337-.05.41-.15.08-.093.12-.27.12-.53v-5.94h.65v6.04c0 .44-.087.743-.26.91-.167.167-.453.25-.86.25-.167 0-.357-.007-.57-.02v-.58c.147.013.317.02.51.02zm1.21-8.62v.81h-.71v-.81h.71zm5.592 5.78a2.482 2.482 0 01-.79 1.13c-.373.3-.88.45-1.52.45-.46 0-.867-.11-1.22-.33a2.298 2.298 0 01-.83-.96c-.2-.42-.3-.907-.3-1.46 0-.547.1-1.027.3-1.44.2-.413.477-.73.83-.95a2.21 2.21 0 011.22-.34c.467 0 .88.117 1.24.35.367.227.647.56.84 1 .2.433.29.95.27 1.55h-4.02c.013.6.173 1.087.48 1.46s.703.56 1.19.56c.453 0 .813-.107 1.08-.32.267-.22.453-.483.56-.79l.67.09zm-2.31-3.35c-.473 0-.86.173-1.16.52-.3.34-.467.767-.5 1.28h3.33c-.033-.513-.203-.94-.51-1.28-.3-.347-.687-.52-1.16-.52zm5.46 4.37c.773 0 1.31-.42 1.61-1.26l.68.1a2.79 2.79 0 01-.78 1.21c-.367.34-.87.51-1.51.51-.467 0-.88-.11-1.24-.33a2.274 2.274 0 01-.84-.96c-.2-.413-.3-.897-.3-1.45 0-.553.1-1.037.3-1.45.206-.413.49-.73.85-.95.366-.227.783-.34 1.25-.34.606 0 1.076.15 1.41.45.34.3.583.613.73.94l-.63.21a2.767 2.767 0 00-.54-.73c-.214-.213-.537-.32-.97-.32-.52 0-.937.197-1.25.59-.314.393-.47.927-.47 1.6s.153 1.207.46 1.6c.313.387.726.58 1.24.58zm4.914-.12c.226 0 .413-.007.56-.02v.58c-.2.013-.407.02-.62.02-.327 0-.58-.033-.76-.1a.714.714 0 01-.39-.36c-.08-.167-.12-.4-.12-.7v-3.58h-.89v-.52h.89v-1.53h.65v1.53h1.27v.52h-1.27v3.44c0 .28.046.47.14.57.093.1.273.15.54.15zm2.501-4.29v.92h-.89v-.92h.89zm0 3.94v.91h-.89v-.91h.89zm17.608-3.33v1.15h-3.53v1.86h3.71v1.23h-5.21v-7.14h5.21v1.19h-3.71v1.71h3.53zm3.659-2.9c1.1 0 1.97.3 2.61.9.64.6.96 1.49.96 2.67s-.32 2.07-.96 2.67c-.64.6-1.51.9-2.61.9h-2.83v-7.14h2.83zm-.22 5.95c.734 0 1.294-.19 1.68-.57.387-.387.58-.99.58-1.81 0-.82-.193-1.42-.58-1.8-.386-.387-.946-.58-1.68-.58h-1.11v4.76h1.11zm10.032 1.19v-.84c-.514.667-1.247 1-2.2 1-.687 0-1.297-.153-1.83-.46a3.238 3.238 0 01-1.24-1.3c-.3-.567-.45-1.227-.45-1.98 0-.753.146-1.41.44-1.97.3-.56.716-.99 1.25-1.29.533-.307 1.143-.46 1.83-.46.793 0 1.473.2 2.04.6.573.4.973.94 1.2 1.62l-1.51.18a1.923 1.923 0 00-.67-.88c-.294-.207-.647-.31-1.06-.31-.6 0-1.084.217-1.45.65-.36.433-.54 1.053-.54 1.86 0 .82.18 1.447.54 1.88.36.433.843.65 1.45.65.5 0 .916-.147 1.25-.44.34-.293.55-.67.63-1.13h-1.76v-1.13h3.15v3.75h-1.07zm6.852-4.24v1.15h-3.53v1.86h3.71v1.23h-5.21v-7.14h5.21v1.19h-3.71v1.71h3.53zM2.91 54.42c.727 0 1.29.183 1.69.55.4.367.6.887.6 1.56s-.2 1.193-.6 1.56c-.4.367-.963.55-1.69.55H.7v2.92H0v-7.14h2.91zm-.11 3.62c.547 0 .963-.123 1.25-.37.287-.253.43-.633.43-1.14 0-.507-.143-.883-.43-1.13-.287-.253-.703-.38-1.25-.38H.7v3.02h2.1zm6.595 3.52c-.067-.087-.11-.35-.13-.79-.207.327-.49.56-.85.7-.36.14-.73.21-1.11.21-.3 0-.573-.063-.82-.19a1.486 1.486 0 01-.59-.54c-.14-.233-.21-.5-.21-.8 0-.54.19-.927.57-1.16.387-.233.93-.397 1.63-.49a8.81 8.81 0 00.87-.15c.187-.053.313-.117.38-.19.073-.073.11-.18.11-.32 0-.34-.107-.607-.32-.8-.213-.193-.54-.29-.98-.29-.34 0-.64.083-.9.25-.253.16-.437.437-.55.83l-.61-.15c.127-.5.377-.87.75-1.11.38-.247.827-.37 1.34-.37.653 0 1.137.147 1.45.44.32.287.48.68.48 1.18v2.45c0 .347.007.613.02.8.02.18.06.343.12.49h-.65zm-.15-2.91c-.073.087-.213.153-.42.2-.207.04-.54.097-1 .17a2.712 2.712 0 00-1.02.34c-.293.173-.44.437-.44.79 0 .3.097.537.29.71.193.173.453.26.78.26.46 0 .877-.127 1.25-.38.373-.26.56-.693.56-1.3v-.79zm2.438-1.33h.03a1.61 1.61 0 01.66-.82c.313-.2.673-.3 1.08-.3.16 0 .3.013.42.04v.63a3.26 3.26 0 00-.46-.03c-.507 0-.917.177-1.23.53-.307.347-.46.857-.46 1.53v2.66h-.66v-5.24h.62v1zM16.535 61c.227 0 .413-.007.56-.02v.58c-.2.013-.407.02-.62.02-.327 0-.58-.033-.76-.1a.714.714 0 01-.39-.36c-.08-.167-.12-.4-.12-.7v-3.58h-.89v-.52h.89v-1.53h.65v1.53h1.27v.52h-1.27v3.44c0 .28.047.47.14.57.093.1.273.15.54.15zm2.102-3.88c.133-.26.353-.477.66-.65.306-.18.65-.27 1.03-.27.56 0 1.01.16 1.35.48.34.32.51.773.51 1.36v3.52h-.65v-3.24c0-.54-.107-.933-.32-1.18-.207-.253-.543-.38-1.01-.38-.44 0-.81.153-1.11.46-.3.3-.45.763-.45 1.39v2.95h-.66v-5.24h.62v.8h.03zm9.131 2.98a2.481 2.481 0 01-.79 1.13c-.373.3-.88.45-1.52.45-.46 0-.866-.11-1.22-.33a2.299 2.299 0 01-.83-.96c-.2-.42-.3-.907-.3-1.46 0-.547.1-1.027.3-1.44.2-.413.477-.73.83-.95a2.21 2.21 0 011.22-.34c.467 0 .88.117 1.24.35.367.227.647.56.84 1 .2.433.29.95.27 1.55h-4.02c.014.6.174 1.087.48 1.46.307.373.703.56 1.19.56.454 0 .814-.107 1.08-.32.267-.22.453-.483.56-.79l.67.09zm-2.31-3.35c-.473 0-.86.173-1.16.52-.3.34-.466.767-.5 1.28h3.33c-.033-.513-.203-.94-.51-1.28-.3-.347-.686-.52-1.16-.52zm3.94.57h.03a1.61 1.61 0 01.66-.82c.313-.2.673-.3 1.08-.3.16 0 .3.013.42.04v.63a3.26 3.26 0 00-.46-.03c-.507 0-.917.177-1.23.53-.307.347-.46.857-.46 1.53v2.66h-.66v-5.24h.62v1zm4.102-.61v.92h-.89v-.92h.89zm0 3.94v.91h-.89v-.91h.89zm12.473-.79l-.58 1.7h-1.6l2.67-7.14h1.97l2.67 7.14h-1.61l-.6-1.7h-2.92zm1.48-4.16h-.04l-1.05 3.02h2.14l-1.05-3.02zm9.084 1.62v1.15h-3.53v1.86h3.71v1.23h-5.21v-7.14h5.21v1.19h-3.71v1.71h3.53zm8.3 4.24h-1.42v-5.28h-.04l-1.74 5.28h-1.11l-1.74-5.28h-.04v5.28h-1.38v-7.14h2.2l1.52 4.92h.04l1.52-4.92h2.19v7.14zm4.162-7.3c.693 0 1.303.15 1.83.45.533.293.946.723 1.24 1.29.293.56.44 1.223.44 1.99 0 .767-.147 1.433-.44 2-.294.56-.707.99-1.24 1.29-.527.293-1.137.44-1.83.44-.687 0-1.297-.147-1.83-.44a3.17 3.17 0 01-1.24-1.29c-.294-.567-.44-1.233-.44-2 0-.767.146-1.43.44-1.99a3.09 3.09 0 011.24-1.29c.533-.3 1.143-.45 1.83-.45zm0 6.25c.6 0 1.08-.213 1.44-.64.366-.433.55-1.06.55-1.88 0-.82-.184-1.443-.55-1.87-.36-.433-.84-.65-1.44-.65s-1.08.217-1.44.65c-.36.427-.54 1.05-.54 1.87 0 .82.18 1.447.54 1.88.36.427.84.64 1.44.64zm6.243-2.4h3.09v1.21h-3.09v-1.21zm7.733 1.75l-.58 1.7h-1.6l2.67-7.14h1.97l2.67 7.14h-1.61l-.6-1.7h-2.92zm1.48-4.16h-.04l-1.05 3.02h2.14l-1.05-3.02zm7.418 5.16c-.387.547-.944.82-1.67.82-.54 0-.987-.16-1.34-.48-.347-.327-.52-.81-.52-1.45v-3.48h1.4v3.12c0 .413.08.71.24.89.166.18.416.27.75.27.313 0 .576-.12.79-.36.22-.247.33-.593.33-1.04v-2.88h1.4v5.29h-1.34v-.7h-.04zm5.256-2.99a.937.937 0 00-.37-.59c-.187-.14-.41-.21-.67-.21-.26 0-.47.057-.63.17a.52.52 0 00-.24.46.4.4 0 00.23.38c.153.08.386.147.7.2l.54.08c.586.1 1.043.263 1.37.49.333.227.5.607.5 1.14 0 .56-.224.983-.67 1.27-.447.28-1.034.42-1.76.42-.694 0-1.267-.147-1.72-.44a1.775 1.775 0 01-.8-1.22l1.31-.19c.066.313.203.547.41.7.213.153.486.23.82.23.3 0 .54-.063.72-.19.18-.127.27-.3.27-.52a.445.445 0 00-.25-.41c-.167-.093-.417-.167-.75-.22l-.58-.09c-.527-.087-.95-.243-1.27-.47-.314-.227-.47-.593-.47-1.1 0-.327.1-.613.3-.86a1.91 1.91 0 01.83-.56c.346-.133.726-.2 1.14-.2.613 0 1.133.143 1.56.43.433.287.69.66.77 1.12l-1.29.18zm4.859 2.6v1.09c-.187.013-.494.02-.92.02-.38 0-.68-.033-.9-.1a.861.861 0 01-.49-.38c-.107-.187-.16-.453-.16-.8v-3.09h-.84v-.94h.84v-1.48h1.4v1.48h1.11v.94h-1.11v2.74c0 .22.043.363.13.43.093.06.256.09.49.09h.45zm1.874-3.39h.04c.147-.287.354-.513.62-.68.274-.173.597-.26.97-.26.134 0 .257.017.37.05v1.3c-.04 0-.12-.007-.24-.02a2.666 2.666 0 00-.31-.02c-.926 0-1.39.48-1.39 1.44v2.67h-1.4v-5.29h1.34v.81zm5.783 4.48a.607.607 0 01-.11-.27 2.397 2.397 0 01-.04-.47c-.147.273-.383.487-.71.64-.32.147-.667.22-1.04.22-.313 0-.607-.063-.88-.19a1.659 1.659 0 01-.65-.54c-.16-.24-.24-.52-.24-.84 0-.54.183-.94.55-1.2.367-.26.917-.433 1.65-.52.507-.067.85-.14 1.03-.22.187-.087.28-.213.28-.38 0-.2-.077-.357-.23-.47-.153-.12-.383-.18-.69-.18-.253 0-.48.067-.68.2a1.07 1.07 0 00-.41.59l-1.29-.2c.113-.493.387-.88.82-1.16.433-.287.963-.43 1.59-.43.767 0 1.34.153 1.72.46.38.307.57.723.57 1.25v2.65c0 .307.007.537.02.69.02.147.06.27.12.37h-1.38zm-.16-2.61c-.08.067-.217.123-.41.17a9.62 9.62 0 01-.74.12 1.51 1.51 0 00-.68.27c-.167.127-.25.307-.25.54 0 .213.067.38.2.5.14.113.33.17.57.17.207 0 .41-.043.61-.13.2-.087.367-.22.5-.4.133-.187.2-.417.2-.69v-.55zm3.49-4.63v7.24h-1.4v-7.24h1.4zm2.119 1.95v5.29h-1.4v-5.29h1.4zm0-1.95v1.2h-1.4v-1.2h1.4zm4.2 7.24a.596.596 0 01-.11-.27 2.397 2.397 0 01-.04-.47c-.147.273-.384.487-.71.64-.32.147-.667.22-1.04.22a2.06 2.06 0 01-.88-.19 1.652 1.652 0 01-.65-.54c-.16-.24-.24-.52-.24-.84 0-.54.183-.94.55-1.2.366-.26.916-.433 1.65-.52.506-.067.85-.14 1.03-.22.186-.087.28-.213.28-.38 0-.2-.077-.357-.23-.47-.154-.12-.384-.18-.69-.18-.254 0-.48.067-.68.2-.194.133-.33.33-.41.59l-1.29-.2c.113-.493.386-.88.82-1.16.433-.287.963-.43 1.59-.43.766 0 1.34.153 1.72.46.38.307.57.723.57 1.25v2.65c0 .307.006.537.02.69.02.147.06.27.12.37h-1.38zm-.16-2.61c-.08.067-.217.123-.41.17-.187.04-.434.08-.74.12a1.51 1.51 0 00-.68.27c-.167.127-.25.307-.25.54 0 .213.066.38.2.5.14.113.33.17.57.17.206 0 .41-.043.61-.13.2-.087.366-.22.5-.4.133-.187.2-.417.2-.69v-.55zm3.46-1.98c.393-.553.95-.83 1.67-.83.54 0 .983.163 1.33.49.353.327.53.807.53 1.44v3.49h-1.4v-3.13c0-.413-.084-.71-.25-.89-.16-.18-.407-.27-.74-.27-.314 0-.58.123-.8.37-.214.24-.32.587-.32 1.04v2.88h-1.4v-5.29h1.34v.7h.04zm11.17.35v1.15h-3.53v1.86h3.71v1.23h-5.21v-7.14h5.21v1.19h-3.71v1.71h3.53zm2.179-.35c.394-.553.95-.83 1.67-.83.54 0 .984.163 1.33.49.354.327.53.807.53 1.44v3.49h-1.4v-3.13c0-.413-.083-.71-.25-.89-.16-.18-.406-.27-.74-.27-.313 0-.58.123-.8.37-.213.24-.32.587-.32 1.04v2.88h-1.4v-5.29h1.34v.7h.04zm9.306 3.02c-.126.46-.4.857-.82 1.19-.42.333-1.01.5-1.77.5-.54 0-1.01-.11-1.41-.33a2.287 2.287 0 01-.92-.96c-.213-.42-.32-.91-.32-1.47 0-.567.104-1.057.31-1.47.214-.42.517-.743.91-.97.4-.227.874-.34 1.42-.34.527 0 .99.107 1.39.32.4.213.71.53.93.95.22.413.33.91.33 1.49 0 .133-.003.237-.01.31h-3.86c.014.447.13.807.35 1.08.22.267.514.4.88.4.347 0 .61-.08.79-.24.18-.167.304-.36.37-.58l1.43.12zm-2.6-2.87c-.353 0-.636.113-.85.34-.206.227-.323.51-.35.85h2.41c-.026-.347-.146-.63-.36-.85-.206-.227-.49-.34-.85-.34zm4.573-.04h.04a1.69 1.69 0 01.62-.68 1.77 1.77 0 01.97-.26c.133 0 .256.017.37.05v1.3c-.04 0-.12-.007-.24-.02a2.693 2.693 0 00-.31-.02c-.927 0-1.39.48-1.39 1.44v2.67h-1.4v-5.29h1.34v.81zm7.54 4.08c0 .827-.24 1.427-.72 1.8-.474.373-1.11.56-1.91.56-.66 0-1.217-.14-1.67-.42-.454-.28-.76-.717-.92-1.31l1.38-.17c.086.3.23.517.43.65.2.14.46.21.78.21.82 0 1.23-.453 1.23-1.36v-.51h-.04c-.314.447-.83.67-1.55.67-.434 0-.824-.103-1.17-.31a2.233 2.233 0 01-.82-.9c-.194-.393-.29-.847-.29-1.36 0-.513.096-.963.29-1.35.2-.393.473-.693.82-.9a2.26 2.26 0 011.19-.32c.353 0 .666.063.94.19.28.127.496.317.65.57h.04v-.63h1.34v4.89zm-2.58-.93c.38 0 .683-.137.91-.41.233-.28.35-.65.35-1.11 0-.453-.117-.817-.35-1.09-.227-.273-.53-.41-.91-.41-.387 0-.694.137-.92.41-.227.273-.34.637-.34 1.09 0 .46.113.83.34 1.11.226.273.533.41.92.41zm6.45 1.33c-.2.553-.41.973-.63 1.26-.213.287-.443.473-.69.56-.24.093-.53.14-.87.14-.36 0-.64-.01-.84-.03v-1.16c.187.027.394.04.62.04.24 0 .42-.05.54-.15.127-.1.244-.28.35-.54l.06-.17-2.12-5.24h1.52l1.29 3.62h.04l1.17-3.62h1.49l-1.93 5.29zm11.673 0h-1.42v-5.28h-.04l-1.74 5.28h-1.11l-1.74-5.28h-.04v5.28h-1.38v-7.14h2.2l1.52 4.92h.04l1.52-4.92h2.19v7.14zm4.242 0a.62.62 0 01-.11-.27 2.477 2.477 0 01-.04-.47c-.146.273-.383.487-.71.64-.32.147-.666.22-1.04.22a2.07 2.07 0 01-.88-.19 1.666 1.666 0 01-.65-.54c-.16-.24-.24-.52-.24-.84 0-.54.184-.94.55-1.2.367-.26.917-.433 1.65-.52.507-.067.85-.14 1.03-.22.187-.087.28-.213.28-.38a.55.55 0 00-.23-.47c-.153-.12-.383-.18-.69-.18-.253 0-.48.067-.68.2a1.07 1.07 0 00-.41.59l-1.29-.2c.114-.493.387-.88.82-1.16.434-.287.964-.43 1.59-.43.767 0 1.34.153 1.72.46.38.307.57.723.57 1.25v2.65c0 .307.007.537.02.69.02.147.06.27.12.37h-1.38zm-.16-2.61c-.08.067-.216.123-.41.17-.186.04-.433.08-.74.12-.28.047-.506.137-.68.27a.64.64 0 00-.25.54c0 .213.067.38.2.5.14.113.33.17.57.17.207 0 .41-.043.61-.13.2-.087.367-.22.5-.4.134-.187.2-.417.2-.69v-.55zm3.421-1.87h.04a1.69 1.69 0 01.62-.68 1.77 1.77 0 01.97-.26c.133 0 .256.017.37.05v1.3c-.04 0-.12-.007-.24-.02a2.693 2.693 0 00-.31-.02c-.927 0-1.39.48-1.39 1.44v2.67h-1.4v-5.29h1.34v.81zm3.829 4.48h-1.4v-7.24h1.4v4l1.91-2.05h1.61l-1.98 2.03 2.21 3.26h-1.63l-1.53-2.33-.59.61v1.72z" fill="#fff"/>
  <path d="M190.239 59.99c-.126.46-.4.857-.82 1.19-.42.333-1.01.5-1.77.5-.54 0-1.01-.11-1.41-.33a2.287 2.287 0 01-.92-.96c-.213-.42-.32-.91-.32-1.47 0-.567.104-1.057.31-1.47.214-.42.517-.743.91-.97.4-.227.874-.34 1.42-.34.527 0 .99.107 1.39.32.4.213.71.53.93.95.22.413.33.91.33 1.49 0 .133-.003.237-.01.31h-3.86c.014.447.13.807.35 1.08.22.267.514.4.88.4.347 0 .61-.08.79-.24.18-.167.304-.36.37-.58l1.43.12zm-2.6-2.87c-.353 0-.636.113-.85.34-.206.227-.323.51-.35.85h2.41c-.026-.347-.146-.63-.36-.85-.206-.227-.49-.34-.85-.34zm6.077 3.35v1.09c-.187.013-.493.02-.92.02-.38 0-.68-.033-.9-.1a.863.863 0 01-.49-.38c-.107-.187-.16-.453-.16-.8v-3.09h-.84v-.94h.84v-1.48h1.4v1.48h1.11v.94h-1.11v2.74c0 .22.043.363.13.43.093.06.257.09.49.09h.45zm5.849-6.21c.693 0 1.303.15 1.83.45.533.293.947.723 1.24 1.29.293.56.44 1.223.44 1.99 0 .767-.147 1.433-.44 2-.293.56-.707.99-1.24 1.29-.527.293-1.137.44-1.83.44-.687 0-1.297-.147-1.83-.44-.527-.3-.94-.73-1.24-1.29-.293-.567-.44-1.233-.44-2 0-.767.147-1.43.44-1.99.3-.567.713-.997 1.24-1.29.533-.3 1.143-.45 1.83-.45zm0 6.25c.6 0 1.08-.213 1.44-.64.367-.433.55-1.06.55-1.88 0-.82-.183-1.443-.55-1.87-.36-.433-.84-.65-1.44-.65s-1.08.217-1.44.65c-.36.427-.54 1.05-.54 1.87 0 .82.18 1.447.54 1.88.36.427.84.64 1.44.64zm7.159 1.17a2.19 2.19 0 01-.95-.19 1.484 1.484 0 01-.63-.55h-.04v2.46h-1.4v-7.13h1.33v.69h.04c.16-.28.38-.487.66-.62s.603-.2.97-.2c.447 0 .847.113 1.2.34.353.227.63.55.83.97.2.42.3.907.3 1.46 0 .553-.1 1.04-.3 1.46-.2.42-.477.743-.83.97-.347.227-.74.34-1.18.34zm-.41-4.47c-.4 0-.717.147-.95.44-.227.293-.34.713-.34 1.26s.113.967.34 1.26c.233.293.55.44.95.44.4 0 .713-.143.94-.43.233-.293.35-.717.35-1.27 0-.547-.117-.967-.35-1.26-.227-.293-.54-.44-.94-.44zm8.398 2.78c-.127.46-.4.857-.82 1.19-.42.333-1.01.5-1.77.5-.54 0-1.01-.11-1.41-.33a2.28 2.28 0 01-.92-.96c-.213-.42-.32-.91-.32-1.47 0-.567.103-1.057.31-1.47.213-.42.517-.743.91-.97.4-.227.873-.34 1.42-.34.527 0 .99.107 1.39.32.4.213.71.53.93.95.22.413.33.91.33 1.49 0 .133-.003.237-.01.31h-3.86c.013.447.13.807.35 1.08.22.267.513.4.88.4.347 0 .61-.08.79-.24.18-.167.303-.36.37-.58l1.43.12zm-2.6-2.87c-.353 0-.637.113-.85.34-.207.227-.323.51-.35.85h2.41c-.027-.347-.147-.63-.36-.85-.207-.227-.49-.34-.85-.34zm4.573-.04h.04a1.69 1.69 0 01.62-.68 1.77 1.77 0 01.97-.26c.133 0 .256.017.37.05v1.3c-.04 0-.12-.007-.24-.02a2.693 2.693 0 00-.31-.02c-.927 0-1.39.48-1.39 1.44v2.67h-1.4v-5.29h1.34v.81zm5.782 4.48a.62.62 0 01-.11-.27 2.477 2.477 0 01-.04-.47c-.146.273-.383.487-.71.64-.32.147-.666.22-1.04.22a2.07 2.07 0 01-.88-.19 1.666 1.666 0 01-.65-.54c-.16-.24-.24-.52-.24-.84 0-.54.184-.94.55-1.2.367-.26.917-.433 1.65-.52.507-.067.85-.14 1.03-.22.187-.087.28-.213.28-.38a.55.55 0 00-.23-.47c-.153-.12-.383-.18-.69-.18-.253 0-.48.067-.68.2a1.07 1.07 0 00-.41.59l-1.29-.2c.114-.493.387-.88.82-1.16.434-.287.964-.43 1.59-.43.767 0 1.34.153 1.72.46.38.307.57.723.57 1.25v2.65c0 .307.007.537.02.69.02.147.06.27.12.37h-1.38zm-.16-2.61c-.08.067-.216.123-.41.17-.186.04-.433.08-.74.12-.28.047-.506.137-.68.27a.64.64 0 00-.25.54c0 .213.067.38.2.5.14.113.33.17.57.17.207 0 .41-.043.61-.13.2-.087.367-.22.5-.4.134-.187.2-.417.2-.69v-.55zm5.101 1.52v1.09c-.187.013-.494.02-.92.02-.38 0-.681-.033-.901-.1a.857.857 0 01-.489-.38c-.107-.187-.16-.453-.16-.8v-3.09h-.84v-.94h.84v-1.48h1.399v1.48h1.11v.94h-1.11v2.74c0 .22.044.363.13.43.094.06.257.09.49.09h.451zm2.997-4.33c.546 0 1.023.113 1.43.34.406.227.72.55.94.97.22.42.33.91.33 1.47 0 .56-.11 1.05-.33 1.47-.22.413-.534.733-.94.96-.407.22-.884.33-1.43.33-.554 0-1.037-.11-1.45-.33a2.327 2.327 0 01-.94-.96c-.214-.42-.32-.91-.32-1.47 0-.567.106-1.057.32-1.47.22-.42.533-.743.94-.97.413-.227.896-.34 1.45-.34zm0 4.49c.393 0 .703-.147.93-.44.226-.293.34-.717.34-1.27 0-.56-.114-.987-.34-1.28-.227-.3-.537-.45-.93-.45-.4 0-.717.15-.95.45-.227.293-.34.72-.34 1.28 0 .553.113.977.34 1.27.233.293.55.44.95.44zm4.61-3.55h.04a1.69 1.69 0 01.62-.68 1.77 1.77 0 01.97-.26c.133 0 .256.017.37.05v1.3c-.04 0-.12-.007-.24-.02a2.693 2.693 0 00-.31-.02c-.927 0-1.39.48-1.39 1.44v2.67h-1.4v-5.29h1.34v.81zM6.15 72.6c-.1.407-.277.79-.53 1.15a2.86 2.86 0 01-1 .86c-.407.22-.877.33-1.41.33a3.1 3.1 0 01-1.66-.45c-.487-.3-.867-.73-1.14-1.29-.273-.56-.41-1.22-.41-1.98 0-.753.137-1.41.41-1.97.273-.56.653-.987 1.14-1.28a3.1 3.1 0 011.66-.45c.54 0 1.003.107 1.39.32.393.207.7.45.92.73.227.28.393.55.5.81l-.7.16a2.437 2.437 0 00-.79-1c-.36-.28-.8-.42-1.32-.42-.493 0-.927.123-1.3.37s-.667.603-.88 1.07c-.207.467-.31 1.02-.31 1.66 0 .647.103 1.207.31 1.68.213.467.507.823.88 1.07.373.247.807.37 1.3.37.573 0 1.053-.173 1.44-.52a2.68 2.68 0 00.79-1.33l.71.11zm3.162-3.16c.48 0 .904.113 1.27.34.367.22.65.537.85.95.207.413.31.897.31 1.45 0 .553-.103 1.037-.31 1.45a2.25 2.25 0 01-.85.96c-.367.22-.79.33-1.27.33-.473 0-.893-.11-1.26-.33a2.316 2.316 0 01-.86-.96c-.2-.413-.3-.897-.3-1.45 0-.553.1-1.037.3-1.45a2.25 2.25 0 01.86-.95c.367-.227.787-.34 1.26-.34zm0 4.92c.52 0 .94-.193 1.26-.58.327-.393.49-.927.49-1.6s-.163-1.207-.49-1.6c-.32-.393-.74-.59-1.26-.59s-.94.197-1.26.59c-.32.393-.48.927-.48 1.6s.16 1.207.48 1.6c.32.387.74.58 1.26.58zm6.947-.36c-.14.26-.364.48-.67.66-.3.173-.644.26-1.03.26-.56 0-1.01-.16-1.35-.48-.34-.32-.51-.777-.51-1.37v-3.51h.66v3.24c0 .54.103.937.31 1.19.213.247.55.37 1.01.37.44 0 .81-.153 1.11-.46.306-.307.46-.773.46-1.4v-2.94h.65v5.24h-.62V74h-.02zm2.451-3.64c.133-.26.353-.477.66-.65.307-.18.65-.27 1.03-.27.56 0 1.01.16 1.35.48.34.32.51.773.51 1.36v3.52h-.65v-3.24c0-.54-.107-.933-.32-1.18-.207-.253-.543-.38-1.01-.38-.44 0-.81.153-1.11.46-.3.3-.45.763-.45 1.39v2.95h-.66v-5.24h.62v.8h.03zm6.433 3.88c.227 0 .413-.007.56-.02v.58c-.2.013-.406.02-.62.02-.326 0-.58-.033-.76-.1a.714.714 0 01-.39-.36c-.08-.167-.12-.4-.12-.7v-3.58h-.89v-.52h.89v-1.53h.65v1.53h1.27v.52h-1.27v3.44c0 .28.047.47.14.57.093.1.273.15.54.15zm2.072-3.68h.03a1.61 1.61 0 01.66-.82c.313-.2.673-.3 1.08-.3.16 0 .3.013.42.04v.63a3.26 3.26 0 00-.46-.03c-.507 0-.917.177-1.23.53-.307.347-.46.857-.46 1.53v2.66h-.66v-5.24h.62v1zm5.271 4.24c-.227.567-.437.99-.63 1.27-.187.287-.37.473-.55.56-.174.087-.377.13-.61.13-.154 0-.274-.01-.36-.03a1.894 1.894 0 00-.15-.02v-.58c.013 0 .056.007.13.02.073.02.166.03.28.03a.983.983 0 00.42-.08c.12-.053.236-.16.35-.32a3.6 3.6 0 00.36-.72l.12-.3-2.13-5.2h.74l1.7 4.41h.03l1.66-4.41h.72l-2.08 5.24zm3.811-4.85v.92h-.89v-.92h.89zm0 3.94v.91h-.89v-.91h.89zm8.665-.79l-.58 1.7h-1.6l2.67-7.14h1.97l2.67 7.14h-1.61l-.6-1.7h-2.92zm1.48-4.16h-.04l-1.05 3.02h2.14l-1.05-3.02zm7.418 5.16c-.387.547-.944.82-1.67.82-.54 0-.987-.16-1.34-.48-.347-.327-.52-.81-.52-1.45v-3.48h1.4v3.12c0 .413.08.71.24.89.166.18.416.27.75.27.313 0 .576-.12.79-.36.22-.247.33-.593.33-1.04v-2.88h1.4v5.29H53.9v-.7h-.04zm5.256-2.99a.937.937 0 00-.37-.59c-.187-.14-.41-.21-.67-.21-.26 0-.47.057-.63.17a.52.52 0 00-.24.46.4.4 0 00.23.38c.153.08.386.147.7.2l.54.08c.586.1 1.043.263 1.37.49.333.227.5.607.5 1.14 0 .56-.224.983-.67 1.27-.447.28-1.034.42-1.76.42-.694 0-1.267-.147-1.72-.44a1.776 1.776 0 01-.8-1.22l1.31-.19c.066.313.203.547.41.7.213.153.486.23.82.23.3 0 .54-.063.72-.19.18-.127.27-.3.27-.52a.445.445 0 00-.25-.41c-.167-.093-.417-.167-.75-.22l-.58-.09c-.527-.087-.95-.243-1.27-.47-.314-.227-.47-.593-.47-1.1 0-.327.1-.613.3-.86.206-.247.483-.433.83-.56.346-.133.726-.2 1.14-.2.613 0 1.133.143 1.56.43.433.287.69.66.77 1.12l-1.29.18zm4.859 2.6v1.09c-.187.013-.494.02-.92.02-.38 0-.68-.033-.9-.1a.862.862 0 01-.49-.38c-.107-.187-.16-.453-.16-.8v-3.09h-.84v-.94h.84v-1.48h1.4v1.48h1.11v.94h-1.11v2.74c0 .22.043.363.13.43.093.06.256.09.49.09h.45zm1.875-3.39h.04a1.69 1.69 0 01.62-.68c.273-.173.596-.26.97-.26.133 0 .256.017.37.05v1.3a2.7 2.7 0 01-.24-.02 2.68 2.68 0 00-.31-.02c-.927 0-1.39.48-1.39 1.44v2.67h-1.4v-5.29h1.34v.81zm5.782 4.48a.607.607 0 01-.11-.27 2.42 2.42 0 01-.04-.47c-.147.273-.383.487-.71.64-.32.147-.666.22-1.04.22-.313 0-.606-.063-.88-.19a1.657 1.657 0 01-.65-.54c-.16-.24-.24-.52-.24-.84 0-.54.183-.94.55-1.2.367-.26.917-.433 1.65-.52.507-.067.85-.14 1.03-.22.187-.087.28-.213.28-.38a.55.55 0 00-.23-.47c-.153-.12-.383-.18-.69-.18-.253 0-.48.067-.68.2a1.07 1.07 0 00-.41.59l-1.29-.2c.114-.493.387-.88.82-1.16.433-.287.963-.43 1.59-.43.767 0 1.34.153 1.72.46.38.307.57.723.57 1.25v2.65c0 .307.007.537.02.69.02.147.06.27.12.37h-1.38zm-.16-2.61c-.08.067-.216.123-.41.17a9.62 9.62 0 01-.74.12 1.51 1.51 0 00-.68.27.64.64 0 00-.25.54c0 .213.067.38.2.5.14.113.33.17.57.17.207 0 .41-.043.61-.13.2-.087.367-.22.5-.4.133-.187.2-.417.2-.69v-.55zm3.49-4.63v7.24h-1.4v-7.24h1.4zm2.12 1.95v5.29h-1.4v-5.29h1.4zm0-1.95v1.2h-1.4v-1.2h1.4zm4.198 7.24a.609.609 0 01-.11-.27 2.428 2.428 0 01-.04-.47c-.146.273-.383.487-.71.64-.32.147-.666.22-1.04.22-.313 0-.606-.063-.88-.19a1.658 1.658 0 01-.65-.54c-.16-.24-.24-.52-.24-.84 0-.54.184-.94.55-1.2.367-.26.917-.433 1.65-.52.507-.067.85-.14 1.03-.22.187-.087.28-.213.28-.38a.55.55 0 00-.23-.47c-.153-.12-.383-.18-.69-.18-.253 0-.48.067-.68.2a1.07 1.07 0 00-.41.59l-1.29-.2c.114-.493.387-.88.82-1.16.434-.287.964-.43 1.59-.43.767 0 1.34.153 1.72.46.38.307.57.723.57 1.25v2.65c0 .307.007.537.02.69.02.147.06.27.12.37h-1.38zm-.16-2.61c-.08.067-.216.123-.41.17-.186.04-.433.08-.74.12-.28.047-.506.137-.68.27a.64.64 0 00-.25.54c0 .213.067.38.2.5.14.113.33.17.57.17.207 0 .41-.043.61-.13.2-.087.367-.22.5-.4.134-.187.2-.417.2-.69v-.55z" fill="#fff"/>
</svg>
