<svg width="512" height="172" viewBox="0 0 512 172" fill="none" xmlns="http://www.w3.org/2000/svg">
<g id="Group 35980">
<g id="Group 35979">
<g id="Group 35801">
<mask id="mask0_693:2467" style="mask-type:alpha" maskUnits="userSpaceOnUse" x="0" y="0" width="512" height="172">
<path id="Union" fill-rule="evenodd" clip-rule="evenodd" d="M511.508 12.2966C511.508 5.66921 506.136 0.296631 499.508 0.296631H12.3494C5.72195 0.296631 0.349365 5.66921 0.349365 12.2966V80.2966V91.2966V159.297C0.349365 165.924 5.72195 171.297 12.3494 171.297H423.838C430.465 171.297 435.838 165.924 435.838 159.297V103.297C435.838 96.6692 441.21 91.2966 447.838 91.2966H499.508C506.136 91.2966 511.508 85.924 511.508 79.2966V12.2966Z" fill="#C4C4C4"/>
</mask>
<g mask="url(#mask0_693:2467)">
<rect id="Rectangle 2400" width="837.053" height="1215.32" rx="418.526" transform="matrix(0.148597 -0.988898 0.996447 0.0842237 -604.576 419.498)" fill="url(#paint0_angular_693:2467)"/>
</g>
</g>
<g id="Group 35972">
<path id="Energy Web Utility Layer Services" d="M30.8092 41.22V28.74H53.9692V23.16H24.2092V66H53.9692V60.3H30.8092V46.68H53.0092V41.22H30.8092ZM64.1838 38.52V34.38H58.3638V66H64.4838V48.6C64.4838 42.12 68.3238 38.76 72.3438 38.76C76.9038 38.76 79.3638 40.92 79.3638 46.86V66H85.4838V45C85.4838 37.02 80.0238 33.66 74.2638 33.66C70.3638 33.66 66.8238 35.04 64.4238 38.52H64.1838ZM112.617 56.04C111.837 58.32 109.677 61.8 104.217 61.8C98.9373 61.8 95.6973 57.42 95.5173 51.66H118.977C119.817 40.32 113.337 33.66 104.157 33.66C95.0973 33.66 89.2773 40.26 89.2773 50.28C89.2773 60.12 95.2773 66.78 104.217 66.78C113.517 66.78 117.357 61.38 118.797 56.82L112.617 56.04ZM104.157 38.58C109.557 38.58 112.317 42.6 112.797 46.98H95.6373C96.1173 42.6 98.8173 38.58 104.157 38.58ZM128.988 34.38H123.168V66H129.288V49.2C129.288 42.12 133.128 39.6 138.348 39.6C139.488 39.6 140.628 39.72 141.408 39.84V33.96C140.688 33.78 139.608 33.66 138.648 33.66C134.088 33.66 130.788 36.12 129.228 39.18H128.988V34.38ZM173.118 34.38H167.298V38.04H167.058C165.378 35.28 161.898 33.66 157.518 33.66C149.298 33.66 143.478 39.78 143.478 49.02C143.478 58.26 149.298 64.32 157.518 64.32C161.778 64.32 165.078 62.76 166.758 60.36H166.998V63.54C166.998 70.08 163.818 72.78 158.358 72.78C154.038 72.78 151.038 71.16 149.838 66.54L143.958 67.74C145.938 74.88 151.578 77.76 158.358 77.76C166.578 77.76 173.118 73.92 173.118 63.84V34.38ZM158.598 59.52C153.138 59.52 149.718 55.2 149.718 49.02C149.718 42.84 153.138 38.58 158.598 38.58C163.938 38.58 167.418 42.84 167.418 49.02C167.418 55.2 163.938 59.52 158.598 59.52ZM206.154 34.38H199.614L191.214 58.38H190.974L182.034 34.38H175.434L188.154 65.64L187.614 66.78C185.874 71.04 184.674 72.48 181.434 72.48C179.634 72.48 178.974 72.3 178.494 72.24V77.58C179.334 77.7 180.534 77.76 182.274 77.76C187.014 77.76 190.314 76.32 194.214 66L206.154 34.38ZM252.961 66H260.341L271.381 23.16H264.541L256.621 57.36H256.381L248.221 23.16H240.961L232.861 57.36H232.621L224.761 23.16H217.921L228.901 66H236.461L244.561 32.7H244.801L252.961 66ZM294.082 56.04C293.302 58.32 291.142 61.8 285.682 61.8C280.402 61.8 277.162 57.42 276.982 51.66H300.442C301.282 40.32 294.802 33.66 285.622 33.66C276.562 33.66 270.742 40.26 270.742 50.28C270.742 60.12 276.742 66.78 285.682 66.78C294.982 66.78 298.822 61.38 300.262 56.82L294.082 56.04ZM285.622 38.58C291.022 38.58 293.782 42.6 294.262 46.98H277.102C277.582 42.6 280.282 38.58 285.622 38.58ZM320.533 33.66C316.093 33.66 312.673 35.4 310.993 38.04H310.753V22.56H304.633V66H310.453V61.92H310.693C312.373 64.86 315.973 66.78 320.533 66.78C328.873 66.78 334.873 60.18 334.873 50.22C334.873 40.26 328.873 33.66 320.533 33.66ZM319.453 61.8C313.933 61.8 310.333 57.36 310.333 50.22C310.333 43.02 313.933 38.58 319.453 38.58C325.093 38.58 328.633 43.02 328.633 50.22C328.633 57.36 325.093 61.8 319.453 61.8ZM385.254 23.16H378.654V49.68C378.654 58.14 374.754 61.32 367.974 61.32C361.134 61.32 357.294 58.14 357.294 49.68V23.16H350.694V50.34C350.694 61.32 358.134 66.96 367.974 66.96C377.754 66.96 385.254 61.32 385.254 50.34V23.16ZM403.372 60.84C400.972 60.84 399.832 60.48 399.832 57.54V38.94H406.732V34.38H399.832V25.38H393.712V34.38H388.492V38.94H393.712V59.16C393.712 64.8 396.292 66.12 401.872 66.12C403.432 66.12 405.712 66.06 406.372 66V60.78C405.532 60.84 404.092 60.84 403.372 60.84ZM410.338 22.56V29.22H416.518V22.56H410.338ZM410.398 34.38V66H416.518V34.38H410.398ZM421.824 22.56V66H427.944V22.56H421.824ZM433.189 22.56V29.22H439.369V22.56H433.189ZM433.249 34.38V66H439.369V34.38H433.249ZM457.395 60.84C454.995 60.84 453.855 60.48 453.855 57.54V38.94H460.755V34.38H453.855V25.38H447.735V34.38H442.515V38.94H447.735V59.16C447.735 64.8 450.315 66.12 455.895 66.12C457.455 66.12 459.735 66.06 460.395 66V60.78C459.555 60.84 458.115 60.84 457.395 60.84ZM492.501 34.38H485.961L477.561 58.38H477.321L468.381 34.38H461.781L474.501 65.64L473.961 66.78C472.221 71.04 471.021 72.48 467.781 72.48C465.981 72.48 465.321 72.3 464.841 72.24V77.58C465.681 77.7 466.881 77.76 468.621 77.76C473.361 77.76 476.661 76.32 480.561 66L492.501 34.38ZM24.2092 151H54.2092V145.3H30.8092V108.16H24.2092V151ZM84.5978 151C83.8178 149.56 83.7578 147.76 83.7578 144.22V128.32C83.7578 122.98 80.3978 118.66 71.2178 118.66C64.4378 118.66 59.1578 122.02 57.7778 127.72L63.3578 128.98C64.4978 125.26 67.7378 123.64 70.9778 123.64C75.7778 123.64 77.6378 125.62 77.6378 128.44C77.6378 130.42 76.0778 131.5 70.0178 132.1C61.5578 132.94 56.5178 135.46 56.5178 142.3C56.5178 148.12 61.3178 151.72 67.0178 151.72C70.7978 151.72 75.5378 150.34 77.6978 146.8C77.6978 148.9 78.1778 150.52 78.6578 151H84.5978ZM77.6378 138.52C77.6378 144.58 72.3578 146.92 68.2178 146.92C64.8578 146.92 62.8178 145.3 62.8178 142.3C62.8178 138.76 66.0578 137.2 69.3578 136.78C72.8978 136.36 76.6178 135.82 77.6378 134.74V138.52ZM115.978 119.38H109.438L101.038 143.38H100.798L91.8578 119.38H85.2578L97.9778 150.64L97.4378 151.78C95.6978 156.04 94.4978 157.48 91.2578 157.48C89.4578 157.48 88.7978 157.3 88.3178 157.24V162.58C89.1578 162.7 90.3578 162.76 92.0978 162.76C96.8378 162.76 100.138 161.32 104.038 151L115.978 119.38ZM139.043 141.04C138.263 143.32 136.103 146.8 130.643 146.8C125.363 146.8 122.123 142.42 121.943 136.66H145.403C146.243 125.32 139.763 118.66 130.583 118.66C121.523 118.66 115.703 125.26 115.703 135.28C115.703 145.12 121.703 151.78 130.643 151.78C139.943 151.78 143.783 146.38 145.223 141.82L139.043 141.04ZM130.583 123.58C135.983 123.58 138.743 127.6 139.223 131.98H122.063C122.543 127.6 125.243 123.58 130.583 123.58ZM155.414 119.38H149.594V151H155.714V134.2C155.714 127.12 159.554 124.6 164.774 124.6C165.914 124.6 167.054 124.72 167.834 124.84V118.96C167.114 118.78 166.034 118.66 165.074 118.66C160.514 118.66 157.214 121.12 155.654 124.18H155.414V119.38ZM214.685 119.98C212.585 111.94 207.065 107.26 197.645 107.26C188.765 107.26 181.985 112 181.985 119.38C181.985 127.3 187.685 129.52 193.265 130.9L201.065 132.82C205.625 133.9 208.985 135.04 208.985 139.6C208.985 143.98 204.965 146.68 199.205 146.68C193.265 146.68 187.985 144.34 187.085 137.2L180.545 137.86C182.045 147.04 188.645 151.96 199.085 151.96C208.205 151.96 215.705 147.76 215.705 139.42C215.705 130.06 209.465 128.32 202.925 126.7L195.545 125.02C191.705 124.12 188.705 122.86 188.705 119.2C188.705 115.36 192.125 112.54 197.585 112.54C202.985 112.54 206.945 115.18 208.085 120.52L214.685 119.98ZM242.344 141.04C241.564 143.32 239.404 146.8 233.944 146.8C228.664 146.8 225.424 142.42 225.244 136.66H248.704C249.544 125.32 243.064 118.66 233.884 118.66C224.824 118.66 219.004 125.26 219.004 135.28C219.004 145.12 225.004 151.78 233.944 151.78C243.244 151.78 247.084 146.38 248.524 141.82L242.344 141.04ZM233.884 123.58C239.284 123.58 242.044 127.6 242.524 131.98H225.364C225.844 127.6 228.544 123.58 233.884 123.58ZM258.715 119.38H252.895V151H259.015V134.2C259.015 127.12 262.855 124.6 268.075 124.6C269.215 124.6 270.355 124.72 271.135 124.84V118.96C270.415 118.78 269.335 118.66 268.375 118.66C263.815 118.66 260.515 121.12 258.955 124.18H258.715V119.38ZM291.772 151L303.712 119.38H297.172L288.472 144.04H288.232L279.712 119.38H272.992L284.752 151H291.772ZM306.334 107.56V114.22H312.514V107.56H306.334ZM306.394 119.38V151H312.514V119.38H306.394ZM331.68 146.8C326.34 146.8 322.98 142.36 322.98 135.22C322.98 128.02 326.34 123.58 331.68 123.58C337.2 123.58 339.06 127.72 339.72 129.58L345.42 127.66C344.4 124.9 340.86 118.66 331.68 118.66C322.62 118.66 316.68 125.2 316.68 135.22C316.68 145.18 322.62 151.72 331.68 151.72C340.98 151.72 344.88 145.36 346.08 140.92L339.9 139.96C339.24 142.54 337.32 146.8 331.68 146.8ZM371.836 141.04C371.056 143.32 368.896 146.8 363.436 146.8C358.156 146.8 354.916 142.42 354.736 136.66H378.196C379.036 125.32 372.556 118.66 363.376 118.66C354.316 118.66 348.496 125.26 348.496 135.28C348.496 145.12 354.496 151.78 363.436 151.78C372.736 151.78 376.576 146.38 378.016 141.82L371.836 141.04ZM363.376 123.58C368.776 123.58 371.536 127.6 372.016 131.98H354.856C355.336 127.6 358.036 123.58 363.376 123.58ZM407.227 127.66C406.387 122.86 401.167 118.66 394.267 118.66C386.887 118.66 381.727 122.56 381.727 127.96C381.727 134.56 386.887 136.24 391.807 137.08L394.987 137.62C398.827 138.28 401.647 139.18 401.647 142.06C401.647 145.24 398.707 147.16 394.627 147.16C390.127 147.16 386.947 145.18 385.927 140.68L380.347 141.88C381.367 147.64 386.407 151.72 394.507 151.72C402.067 151.72 407.887 148.42 407.887 141.88C407.887 135.1 402.727 133.42 397.267 132.46L394.147 131.98C390.787 131.38 388.027 130.72 388.027 127.9C388.027 124.96 390.487 123.34 394.207 123.34C397.567 123.34 400.747 125.08 401.647 128.8L407.227 127.66Z" fill="#452E66"/>
</g>
</g>
</g>
<defs>
<radialGradient id="paint0_angular_693:2467" cx="0" cy="0" r="1" gradientUnits="userSpaceOnUse" gradientTransform="translate(602.685 846.476) rotate(104.496) scale(380.956 660.198)">
<stop stop-color="#EBB9F2"/>
<stop offset="0.541667" stop-color="#F6AAAA"/>
<stop offset="1" stop-color="#A566FF"/>
</radialGradient>
</defs>
</svg>
