<svg width="448" height="181" fill="none" xmlns="http://www.w3.org/2000/svg">
  <mask id="a" style="mask-type:alpha" maskUnits="userSpaceOnUse" x="0" y="0" width="448" height="181">
    <path fill-rule="evenodd" clip-rule="evenodd" d="M448 12c0-6.627-5.373-12-12-12H12C5.373 0 0 5.373 0 12v157c0 6.627 5.373 12 12 12h135c6.627 0 12-5.373 12-12v-66c0-6.627 5.373-12 12-12h265c6.627 0 12-5.373 12-12V12z" fill="#C4C4C4"/>
  </mask>
  <g mask="url(#a)">
    <rect width="837.053" height="1215.32" rx="418.526" transform="matrix(0 1 -.9979 .06478 807.074 -463.831)" fill="url(#Group_35977__paint0_angular_183:623)"/>
  </g>
  <path d="M32.9 33.66c-8.4 0-14.34 6.54-14.34 16.56 0 9.96 5.94 16.5 14.34 16.5 4.5 0 8.16-1.86 9.84-4.8h.24V66h5.82V22.56h-6.12v15.48h-.24c-1.68-2.64-5.16-4.38-9.54-4.38zm1.08 28.14c-5.64 0-9.18-4.44-9.18-11.58 0-7.2 3.54-11.64 9.18-11.64 5.52 0 9.12 4.44 9.12 11.64 0 7.14-3.6 11.58-9.12 11.58zM76 56.04c-.78 2.28-2.94 5.76-8.4 5.76-5.28 0-8.52-4.38-8.7-10.14h23.46c.84-11.34-5.64-18-14.82-18-9.06 0-14.88 6.6-14.88 16.62 0 9.84 6 16.5 14.94 16.5 9.3 0 13.14-5.4 14.58-9.96L76 56.04zm-8.46-17.46c5.4 0 8.16 4.02 8.64 8.4H59.02c.48-4.38 3.18-8.4 8.52-8.4zm32.992 23.22c-5.34 0-8.7-4.44-8.7-11.58 0-7.2 3.36-11.64 8.7-11.64 5.52 0 7.38 4.14 8.04 6l5.7-1.92c-1.02-2.76-4.56-9-13.74-9-9.06 0-15 6.54-15 16.56 0 9.96 5.94 16.5 15 16.5 9.3 0 13.2-6.36 14.4-10.8l-6.18-.96c-.66 2.58-2.58 6.84-8.22 6.84zm44.656 4.2c-.78-1.44-.84-3.24-.84-6.78v-15.9c0-5.34-3.36-9.66-12.54-9.66-6.78 0-12.06 3.36-13.44 9.06l5.58 1.26c1.14-3.72 4.38-5.34 7.62-5.34 4.8 0 6.66 1.98 6.66 4.8 0 1.98-1.56 3.06-7.62 3.66-8.46.84-13.5 3.36-13.5 10.2 0 5.82 4.8 9.42 10.5 9.42 3.78 0 8.52-1.38 10.68-4.92 0 2.1.48 3.72.96 4.2h5.94zm-6.96-12.48c0 6.06-5.28 8.4-9.42 8.4-3.36 0-5.4-1.62-5.4-4.62 0-3.54 3.24-5.1 6.54-5.52 3.54-.42 7.26-.96 8.28-2.04v3.78zm16.722-19.14h-5.82V66h6.12V49.2c0-7.08 3.84-9.6 9.06-9.6 1.14 0 2.28.12 3.06.24v-5.88c-.72-.18-1.8-.3-2.76-.3-4.56 0-7.86 2.46-9.42 5.52h-.24v-4.8zm31.525-.72c-4.44 0-7.86 1.74-9.54 4.38h-.24V22.56h-6.12V66h5.82v-4.08h.24c1.68 2.94 5.28 4.86 9.84 4.86 8.34 0 14.34-6.6 14.34-16.56 0-9.96-6-16.56-14.34-16.56zm-1.08 28.14c-5.52 0-9.12-4.44-9.12-11.58 0-7.2 3.6-11.64 9.12-11.64 5.64 0 9.18 4.44 9.18 11.64 0 7.14-3.54 11.58-9.18 11.58zm33.975-28.14c-9.36 0-15.36 6.54-15.36 16.56 0 9.96 6 16.5 15.36 16.5 9.24 0 15.3-6.54 15.3-16.5 0-10.02-6.06-16.56-15.3-16.56zm0 28.14c-5.64 0-9.12-4.44-9.12-11.58 0-7.2 3.48-11.64 9.12-11.64 5.52 0 9.06 4.44 9.06 11.64 0 7.14-3.54 11.58-9.06 11.58zm25.287-23.28v-4.14h-5.82V66h6.12V48.6c0-6.48 3.84-9.84 7.86-9.84 4.56 0 7.02 2.16 7.02 8.1V66h6.12V45c0-7.98-5.46-11.34-11.22-11.34-3.9 0-7.44 1.38-9.84 4.86h-.24zm26.174-15.96v6.66h6.18v-6.66h-6.18zm.06 11.82V66h6.12V34.38h-6.12zM280.756 66h25.14v-5.28h-17.7l17.7-20.76v-5.58h-24.24v5.34h16.68l-17.58 20.7V66zm50.479-9.96c-.78 2.28-2.94 5.76-8.4 5.76-5.28 0-8.52-4.38-8.7-10.14h23.46c.84-11.34-5.64-18-14.82-18-9.06 0-14.88 6.6-14.88 16.62 0 9.84 6 16.5 14.94 16.5 9.3 0 13.14-5.4 14.58-9.96l-6.18-.78zm-8.46-17.46c5.4 0 8.16 4.02 8.64 8.4h-17.16c.48-4.38 3.18-8.4 8.52-8.4zm43.277 22.26c-2.4 0-3.54-.36-3.54-3.3v-18.6h6.9v-4.56h-6.9v-9h-6.12v9h-5.22v4.56h5.22v20.22c0 5.64 2.58 6.96 8.16 6.96 1.56 0 3.84-.06 4.5-.12v-5.22c-.84.06-2.28.06-3 .06zm13.026-22.32V22.56h-6.12V66h6.12V49.2c0-6.48 3.96-10.44 7.86-10.44 4.56 0 7.02 2.16 7.02 8.1V66h6.12V45c0-7.98-5.46-11.34-11.04-11.34-3.78 0-7.26 1.38-9.72 4.86h-.24zm48.134 17.52c-.78 2.28-2.94 5.76-8.4 5.76-5.28 0-8.52-4.38-8.7-10.14h23.46c.84-11.34-5.64-18-14.82-18-9.06 0-14.88 6.6-14.88 16.62 0 9.84 6 16.5 14.94 16.5 9.3 0 13.14-5.4 14.58-9.96l-6.18-.78zm-8.46-17.46c5.4 0 8.16 4.02 8.64 8.4h-17.16c.48-4.38 3.18-8.4 8.52-8.4zM48.2 119.38h-5.82v3.66h-.24c-1.68-2.76-5.16-4.38-9.54-4.38-8.22 0-14.04 6.12-14.04 15.36 0 9.24 5.82 15.3 14.04 15.3 4.26 0 7.56-1.56 9.24-3.96h.24v3.18c0 6.54-3.18 9.24-8.64 9.24-4.32 0-7.32-1.62-8.52-6.24l-5.88 1.2c1.98 7.14 7.62 10.02 14.4 10.02 8.22 0 14.76-3.84 14.76-13.92v-29.46zm-14.52 25.14c-5.46 0-8.88-4.32-8.88-10.5s3.42-10.44 8.88-10.44c5.34 0 8.82 4.26 8.82 10.44s-3.48 10.5-8.82 10.5zm25.176-25.14h-5.82V151h6.12v-16.8c0-7.08 3.84-9.6 9.06-9.6 1.14 0 2.28.12 3.06.24v-5.88c-.72-.18-1.8-.3-2.76-.3-4.56 0-7.86 2.46-9.42 5.52h-.24v-4.8zm15.685-11.82v6.66h6.18v-6.66h-6.18zm.06 11.82V151h6.12v-31.62h-6.12zm24.686-.72c-8.4 0-14.34 6.54-14.34 16.56 0 9.96 5.94 16.5 14.34 16.5 4.5 0 8.16-1.86 9.84-4.8h.24V151h5.82v-43.44h-6.12v15.48h-.24c-1.68-2.64-5.16-4.38-9.54-4.38zm1.08 28.14c-5.64 0-9.18-4.44-9.18-11.58 0-7.2 3.54-11.64 9.18-11.64 5.52 0 9.12 4.44 9.12 11.64 0 7.14-3.6 11.58-9.12 11.58z" fill="#452E66"/>
  <defs>
    <radialGradient id="Group_35977__paint0_angular_183:623" cx="0" cy="0" r="1" gradientUnits="userSpaceOnUse" gradientTransform="matrix(-95.35802 368.82831 -639.18067 -165.25576 602.685 846.476)">
      <stop stop-color="#EBB9F2"/>
      <stop offset=".542" stop-color="#F6AAAA"/>
      <stop offset="1" stop-color="#A566FF"/>
    </radialGradient>
  </defs>
</svg>
