<svg width="596" height="513" viewBox="0 0 596 513" fill="none" xmlns="http://www.w3.org/2000/svg">
<path opacity="0.5" d="M261.871 7.68729V4.35929H268.047V2.87129H260.111V14.2953H268.047V12.7753H261.871V9.14329H267.791V7.68729H261.871ZM270.771 6.96729V5.86329H269.219V14.2953H270.851V9.65529C270.851 7.92729 271.875 7.03129 272.947 7.03129C274.163 7.03129 274.819 7.60729 274.819 9.19129V14.2953H276.451V8.69529C276.451 6.56729 274.995 5.67129 273.459 5.67129C272.419 5.67129 271.475 6.03929 270.835 6.96729H270.771ZM283.687 11.6393C283.479 12.2473 282.903 13.1753 281.447 13.1753C280.039 13.1753 279.174 12.0073 279.127 10.4713H285.383C285.607 7.44729 283.879 5.67129 281.431 5.67129C279.015 5.67129 277.463 7.43129 277.463 10.1033C277.463 12.7273 279.062 14.5033 281.447 14.5033C283.927 14.5033 284.951 13.0633 285.335 11.8473L283.687 11.6393ZM281.431 6.98329C282.871 6.98329 283.607 8.05529 283.735 9.22329H279.159C279.287 8.05529 280.007 6.98329 281.431 6.98329ZM288.052 5.86329H286.5V14.2953H288.132V9.81529C288.132 7.92729 289.156 7.25529 290.548 7.25529C290.852 7.25529 291.156 7.28729 291.364 7.31929V5.75129C291.172 5.70329 290.884 5.67129 290.628 5.67129C289.412 5.67129 288.532 6.32729 288.116 7.14329H288.052V5.86329ZM299.82 5.86329H298.268V6.83929H298.204C297.756 6.10329 296.828 5.67129 295.66 5.67129C293.468 5.67129 291.916 7.30329 291.916 9.76729C291.916 12.2313 293.468 13.8473 295.66 13.8473C296.796 13.8473 297.676 13.4313 298.124 12.7913H298.188V13.6393C298.188 15.3833 297.34 16.1033 295.884 16.1033C294.732 16.1033 293.932 15.6713 293.612 14.4393L292.044 14.7593C292.572 16.6633 294.076 17.4313 295.884 17.4313C298.076 17.4313 299.82 16.4073 299.82 13.7193V5.86329ZM295.948 12.5673C294.492 12.5673 293.58 11.4153 293.58 9.76729C293.58 8.11929 294.492 6.98329 295.948 6.98329C297.372 6.98329 298.3 8.11929 298.3 9.76729C298.3 11.4153 297.372 12.5673 295.948 12.5673ZM308.63 5.86329H306.886L304.646 12.2633H304.582L302.198 5.86329H300.438L303.83 14.1993L303.686 14.5033C303.222 15.6393 302.902 16.0233 302.038 16.0233C301.558 16.0233 301.382 15.9753 301.254 15.9593V17.3833C301.478 17.4153 301.798 17.4313 302.262 17.4313C303.526 17.4313 304.406 17.0473 305.446 14.2953L308.63 5.86329Z" fill="black"/>
<path opacity="0.1" d="M284.875 61.8149L453.867 159.609V354.981L284.875 452.776L115.883 354.981V159.609L284.875 61.8149ZM284.875 55.2953C283.79 55.2953 282.706 55.5126 281.621 56.1646L112.629 153.959C110.677 155.046 109.375 157.219 109.375 159.609V354.981C109.375 357.372 110.677 359.545 112.629 360.632L281.621 458.426C282.706 459.078 283.79 459.295 284.875 459.295C285.96 459.295 287.044 459.078 288.129 458.426L457.121 360.632C459.073 359.545 460.375 357.372 460.375 354.981V159.609C460.375 157.219 459.073 155.046 457.121 153.959L288.129 56.1646C287.044 55.5126 285.96 55.2953 284.875 55.2953Z" fill="#452E66"/>
<path opacity="0.2" d="M284.875 451.295L454.375 158.295H115.375L283.788 450.427" stroke="#452E66" stroke-miterlimit="10" stroke-linecap="round" stroke-linejoin="round"/>
<path opacity="0.2" d="M284.875 61.2953L115.375 353.687H454.375L285.962 61.946C284.658 453.464 284.658 451.295 284.658 451.295" stroke="#452E66" stroke-miterlimit="10" stroke-linecap="round" stroke-linejoin="round"/>
<path opacity="0.2" d="M115.375 354.295L454.375 158.295" stroke="#452E66" stroke-width="0.5" stroke-miterlimit="10" stroke-linecap="round" stroke-linejoin="round"/>
<path opacity="0.2" d="M454.375 354.295L115.375 158.295" stroke="#452E66" stroke-width="0.5" stroke-miterlimit="10" stroke-linecap="round" stroke-linejoin="round"/>
<rect x="127.375" y="348.295" width="25" height="26" rx="12.5" transform="rotate(90 127.375 348.295)" fill="#D8F1A3"/>
<rect x="466.375" y="348.295" width="25" height="26" rx="12.5" transform="rotate(90 466.375 348.295)" fill="#F3D882"/>
<rect x="298.375" y="444.295" width="26" height="26" rx="13" transform="rotate(90 298.375 444.295)" fill="#9EFAFB"/>
<rect x="298.375" y="42.2953" width="26" height="26" rx="13" transform="rotate(90 298.375 42.2953)" fill="#F6AAAA"/>
<rect x="127.375" y="143.295" width="26" height="26" rx="13" transform="rotate(90 127.375 143.295)" fill="#A566FF"/>
<rect x="466.375" y="143.295" width="26" height="26" rx="13" transform="rotate(90 466.375 143.295)" fill="#452E66"/>
<path opacity="0.5" d="M230.111 498.871V510.295H234.447C237.695 510.295 239.871 508.375 239.871 504.583C239.871 500.807 237.695 498.871 234.447 498.871H230.111ZM231.871 508.823V500.359H234.223C236.687 500.359 238.079 501.815 238.079 504.599C238.079 507.367 236.687 508.823 234.223 508.823H231.871ZM247.03 507.639C246.822 508.247 246.246 509.175 244.79 509.175C243.382 509.175 242.518 508.007 242.47 506.471H248.726C248.95 503.447 247.222 501.671 244.774 501.671C242.358 501.671 240.806 503.431 240.806 506.103C240.806 508.727 242.406 510.503 244.79 510.503C247.27 510.503 248.294 509.063 248.678 507.847L247.03 507.639ZM244.774 502.983C246.214 502.983 246.95 504.055 247.078 505.223H242.502C242.63 504.055 243.35 502.983 244.774 502.983ZM253.572 509.175C252.148 509.175 251.252 507.991 251.252 506.087C251.252 504.167 252.148 502.983 253.572 502.983C255.044 502.983 255.54 504.087 255.716 504.583L257.236 504.071C256.964 503.335 256.02 501.671 253.572 501.671C251.156 501.671 249.572 503.415 249.572 506.087C249.572 508.743 251.156 510.487 253.572 510.487C256.052 510.487 257.092 508.791 257.412 507.607L255.764 507.351C255.588 508.039 255.076 509.175 253.572 509.175ZM264.28 507.639C264.072 508.247 263.496 509.175 262.04 509.175C260.632 509.175 259.768 508.007 259.72 506.471H265.976C266.2 503.447 264.472 501.671 262.024 501.671C259.608 501.671 258.056 503.431 258.056 506.103C258.056 508.727 259.656 510.503 262.04 510.503C264.52 510.503 265.544 509.063 265.928 507.847L264.28 507.639ZM262.024 502.983C263.464 502.983 264.2 504.055 264.328 505.223H259.752C259.88 504.055 260.6 502.983 262.024 502.983ZM268.646 502.967V501.863H267.094V510.295H268.726V505.655C268.726 503.927 269.75 503.031 270.822 503.031C272.038 503.031 272.694 503.607 272.694 505.191V510.295H274.326V504.695C274.326 502.567 272.87 501.671 271.334 501.671C270.294 501.671 269.35 502.039 268.71 502.967H268.646ZM278.971 508.919C278.331 508.919 278.027 508.823 278.027 508.039V503.079H279.867V501.863H278.027V499.463H276.395V501.863H275.003V503.079H276.395V508.471C276.395 509.975 277.083 510.327 278.571 510.327C278.987 510.327 279.595 510.311 279.771 510.295V508.903C279.547 508.919 279.163 508.919 278.971 508.919ZM282.365 501.863H280.813V510.295H282.445V505.815C282.445 503.927 283.469 503.255 284.861 503.255C285.165 503.255 285.469 503.287 285.677 503.319V501.751C285.485 501.703 285.197 501.671 284.941 501.671C283.725 501.671 282.845 502.327 282.429 503.143H282.365V501.863ZM293.48 510.295C293.272 509.911 293.256 509.431 293.256 508.487V504.247C293.256 502.823 292.36 501.671 289.912 501.671C288.104 501.671 286.696 502.567 286.328 504.087L287.816 504.423C288.12 503.431 288.984 502.999 289.848 502.999C291.128 502.999 291.624 503.527 291.624 504.279C291.624 504.807 291.208 505.095 289.592 505.255C287.336 505.479 285.992 506.151 285.992 507.975C285.992 509.527 287.272 510.487 288.792 510.487C289.8 510.487 291.064 510.119 291.64 509.175C291.64 509.735 291.768 510.167 291.896 510.295H293.48ZM291.624 506.967C291.624 508.583 290.216 509.207 289.112 509.207C288.216 509.207 287.672 508.775 287.672 507.975C287.672 507.031 288.536 506.615 289.416 506.503C290.36 506.391 291.352 506.247 291.624 505.959V506.967ZM294.563 498.711V510.295H296.195V498.711H294.563ZM297.594 498.711V500.487H299.242V498.711H297.594ZM297.61 501.863V510.295H299.242V501.863H297.61ZM300.241 510.295H306.945V508.887H302.225L306.945 503.351V501.863H300.481V503.287H304.929L300.241 508.807V510.295ZM315.058 510.295C314.85 509.911 314.834 509.431 314.834 508.487V504.247C314.834 502.823 313.938 501.671 311.49 501.671C309.682 501.671 308.274 502.567 307.906 504.087L309.394 504.423C309.698 503.431 310.562 502.999 311.426 502.999C312.706 502.999 313.202 503.527 313.202 504.279C313.202 504.807 312.786 505.095 311.17 505.255C308.914 505.479 307.57 506.151 307.57 507.975C307.57 509.527 308.85 510.487 310.37 510.487C311.378 510.487 312.642 510.119 313.218 509.175C313.218 509.735 313.346 510.167 313.474 510.295H315.058ZM313.202 506.967C313.202 508.583 311.794 509.207 310.69 509.207C309.794 509.207 309.25 508.775 309.25 507.975C309.25 507.031 310.114 506.615 310.994 506.503C311.938 506.391 312.93 506.247 313.202 505.959V506.967ZM319.534 508.919C318.894 508.919 318.59 508.823 318.59 508.039V503.079H320.43V501.863H318.59V499.463H316.958V501.863H315.566V503.079H316.958V508.471C316.958 509.975 317.646 510.327 319.134 510.327C319.549 510.327 320.158 510.311 320.334 510.295V508.903C320.11 508.919 319.726 508.919 319.534 508.919ZM321.391 498.711V500.487H323.039V498.711H321.391ZM321.407 501.863V510.295H323.039V501.863H321.407ZM328.262 501.671C325.766 501.671 324.166 503.415 324.166 506.087C324.166 508.743 325.766 510.487 328.262 510.487C330.726 510.487 332.342 508.743 332.342 506.087C332.342 503.415 330.726 501.671 328.262 501.671ZM328.262 509.175C326.758 509.175 325.83 507.991 325.83 506.087C325.83 504.167 326.758 502.983 328.262 502.983C329.734 502.983 330.678 504.167 330.678 506.087C330.678 507.991 329.734 509.175 328.262 509.175ZM335.005 502.967V501.863H333.453V510.295H335.085V505.655C335.085 503.927 336.109 503.031 337.181 503.031C338.397 503.031 339.053 503.607 339.053 505.191V510.295H340.685V504.695C340.685 502.567 339.229 501.671 337.693 501.671C336.653 501.671 335.709 502.039 335.069 502.967H335.005Z" fill="black"/>
<path opacity="0.5" d="M489.551 362.239L490.687 365.295H492.607L488.127 353.871H485.903L481.439 365.295H483.327L484.463 362.239H489.551ZM488.991 360.751H485.007L486.975 355.471H487.039L488.991 360.751ZM499.921 359.071C499.697 357.791 498.305 356.671 496.465 356.671C494.497 356.671 493.121 357.711 493.121 359.151C493.121 360.911 494.497 361.359 495.809 361.583L496.657 361.727C497.681 361.903 498.433 362.143 498.433 362.911C498.433 363.759 497.649 364.271 496.561 364.271C495.361 364.271 494.513 363.743 494.241 362.543L492.753 362.863C493.025 364.399 494.369 365.487 496.529 365.487C498.545 365.487 500.097 364.607 500.097 362.863C500.097 361.055 498.721 360.607 497.265 360.351L496.433 360.223C495.537 360.063 494.801 359.887 494.801 359.135C494.801 358.351 495.457 357.919 496.449 357.919C497.345 357.919 498.193 358.383 498.433 359.375L499.921 359.071ZM507.78 359.071C507.556 357.791 506.164 356.671 504.324 356.671C502.356 356.671 500.98 357.711 500.98 359.151C500.98 360.911 502.356 361.359 503.668 361.583L504.516 361.727C505.54 361.903 506.292 362.143 506.292 362.911C506.292 363.759 505.508 364.271 504.42 364.271C503.22 364.271 502.372 363.743 502.1 362.543L500.612 362.863C500.884 364.399 502.228 365.487 504.388 365.487C506.404 365.487 507.956 364.607 507.956 362.863C507.956 361.055 506.58 360.607 505.124 360.351L504.292 360.223C503.396 360.063 502.66 359.887 502.66 359.135C502.66 358.351 503.316 357.919 504.308 357.919C505.204 357.919 506.052 358.383 506.292 359.375L507.78 359.071ZM514.968 362.639C514.76 363.247 514.184 364.175 512.728 364.175C511.32 364.175 510.456 363.007 510.408 361.471H516.664C516.888 358.447 515.16 356.671 512.712 356.671C510.296 356.671 508.744 358.431 508.744 361.103C508.744 363.727 510.344 365.503 512.728 365.503C515.208 365.503 516.232 364.063 516.616 362.847L514.968 362.639ZM512.712 357.983C514.152 357.983 514.888 359.055 515.016 360.223H510.44C510.568 359.055 511.288 357.983 512.712 357.983ZM520.924 363.919C520.284 363.919 519.98 363.823 519.98 363.039V358.079H521.82V356.863H519.98V354.463H518.348V356.863H516.956V358.079H518.348V363.471C518.348 364.975 519.036 365.327 520.524 365.327C520.94 365.327 521.548 365.311 521.724 365.295V363.903C521.5 363.919 521.116 363.919 520.924 363.919ZM529.39 359.071C529.166 357.791 527.774 356.671 525.934 356.671C523.966 356.671 522.59 357.711 522.59 359.151C522.59 360.911 523.966 361.359 525.278 361.583L526.126 361.727C527.15 361.903 527.902 362.143 527.902 362.911C527.902 363.759 527.118 364.271 526.03 364.271C524.83 364.271 523.982 363.743 523.71 362.543L522.222 362.863C522.494 364.399 523.838 365.487 525.998 365.487C528.014 365.487 529.566 364.607 529.566 362.863C529.566 361.055 528.19 360.607 526.734 360.351L525.902 360.223C525.006 360.063 524.27 359.887 524.27 359.135C524.27 358.351 524.926 357.919 525.918 357.919C526.814 357.919 527.662 358.383 527.902 359.375L529.39 359.071Z" fill="black"/>
<path d="M482.111 146.871V158.295H486.447C489.695 158.295 491.871 156.375 491.871 152.583C491.871 148.807 489.695 146.871 486.447 146.871H482.111ZM483.871 156.823V148.359H486.223C488.687 148.359 490.079 149.815 490.079 152.599C490.079 155.367 488.687 156.823 486.223 156.823H483.871ZM499.03 155.639C498.822 156.247 498.246 157.175 496.79 157.175C495.382 157.175 494.518 156.007 494.47 154.471H500.726C500.95 151.447 499.222 149.671 496.774 149.671C494.358 149.671 492.806 151.431 492.806 154.103C492.806 156.727 494.406 158.503 496.79 158.503C499.27 158.503 500.294 157.063 500.678 155.847L499.03 155.639ZM496.774 150.983C498.214 150.983 498.95 152.055 499.078 153.223H494.502C494.63 152.055 495.35 150.983 496.774 150.983ZM505.572 157.175C504.148 157.175 503.252 155.991 503.252 154.087C503.252 152.167 504.148 150.983 505.572 150.983C507.044 150.983 507.54 152.087 507.716 152.583L509.236 152.071C508.964 151.335 508.02 149.671 505.572 149.671C503.156 149.671 501.572 151.415 501.572 154.087C501.572 156.743 503.156 158.487 505.572 158.487C508.052 158.487 509.092 156.791 509.412 155.607L507.764 155.351C507.588 156.039 507.076 157.175 505.572 157.175ZM517.48 158.295C517.272 157.911 517.256 157.431 517.256 156.487V152.247C517.256 150.823 516.36 149.671 513.912 149.671C512.104 149.671 510.696 150.567 510.328 152.087L511.816 152.423C512.12 151.431 512.984 150.999 513.848 150.999C515.128 150.999 515.624 151.527 515.624 152.279C515.624 152.807 515.208 153.095 513.592 153.255C511.336 153.479 509.992 154.151 509.992 155.975C509.992 157.527 511.272 158.487 512.792 158.487C513.8 158.487 515.064 158.119 515.64 157.175C515.64 157.735 515.768 158.167 515.896 158.295H517.48ZM515.624 154.967C515.624 156.583 514.216 157.207 513.112 157.207C512.216 157.207 511.672 156.775 511.672 155.975C511.672 155.031 512.536 154.615 513.416 154.503C514.36 154.391 515.352 154.247 515.624 153.959V154.967ZM520.083 149.863H518.531V158.295H520.163V153.815C520.163 151.927 521.187 151.255 522.579 151.255C522.883 151.255 523.187 151.287 523.395 151.319V149.751C523.203 149.703 522.915 149.671 522.659 149.671C521.443 149.671 520.563 150.327 520.147 151.143H520.083V149.863ZM528.49 149.671C527.306 149.671 526.394 150.135 525.946 150.839H525.882V146.711H524.25V158.295H525.802V157.207H525.866C526.314 157.991 527.274 158.503 528.49 158.503C530.714 158.503 532.314 156.743 532.314 154.087C532.314 151.431 530.714 149.671 528.49 149.671ZM528.202 157.175C526.73 157.175 525.77 155.991 525.77 154.087C525.77 152.167 526.73 150.983 528.202 150.983C529.706 150.983 530.65 152.167 530.65 154.087C530.65 155.991 529.706 157.175 528.202 157.175ZM537.262 149.671C534.766 149.671 533.166 151.415 533.166 154.087C533.166 156.743 534.766 158.487 537.262 158.487C539.726 158.487 541.342 156.743 541.342 154.087C541.342 151.415 539.726 149.671 537.262 149.671ZM537.262 157.175C535.758 157.175 534.83 155.991 534.83 154.087C534.83 152.167 535.758 150.983 537.262 150.983C538.734 150.983 539.678 152.167 539.678 154.087C539.678 155.991 538.734 157.175 537.262 157.175ZM544.005 150.967V149.863H542.453V158.295H544.085V153.655C544.085 151.927 545.109 151.031 546.181 151.031C547.397 151.031 548.053 151.607 548.053 153.191V158.295H549.685V152.695C549.685 150.567 548.229 149.671 546.693 149.671C545.653 149.671 544.709 150.039 544.069 150.967H544.005ZM550.985 146.711V148.487H552.633V146.711H550.985ZM551.001 149.863V158.295H552.633V149.863H551.001ZM553.632 158.295H560.336V156.887H555.616L560.336 151.351V149.863H553.872V151.287H558.32L553.632 156.807V158.295ZM568.449 158.295C568.241 157.911 568.225 157.431 568.225 156.487V152.247C568.225 150.823 567.329 149.671 564.881 149.671C563.073 149.671 561.665 150.567 561.297 152.087L562.785 152.423C563.089 151.431 563.953 150.999 564.817 150.999C566.097 150.999 566.593 151.527 566.593 152.279C566.593 152.807 566.177 153.095 564.561 153.255C562.305 153.479 560.961 154.151 560.961 155.975C560.961 157.527 562.241 158.487 563.761 158.487C564.769 158.487 566.033 158.119 566.609 157.175C566.609 157.735 566.737 158.167 566.865 158.295H568.449ZM566.593 154.967C566.593 156.583 565.185 157.207 564.081 157.207C563.185 157.207 562.641 156.775 562.641 155.975C562.641 155.031 563.505 154.615 564.385 154.503C565.329 154.391 566.321 154.247 566.593 153.959V154.967ZM572.924 156.919C572.284 156.919 571.98 156.823 571.98 156.039V151.079H573.82V149.863H571.98V147.463H570.348V149.863H568.956V151.079H570.348V156.471C570.348 157.975 571.036 158.327 572.524 158.327C572.94 158.327 573.548 158.311 573.724 158.295V156.903C573.5 156.919 573.116 156.919 572.924 156.919ZM574.782 146.711V148.487H576.43V146.711H574.782ZM574.798 149.863V158.295H576.43V149.863H574.798ZM581.653 149.671C579.157 149.671 577.557 151.415 577.557 154.087C577.557 156.743 579.157 158.487 581.653 158.487C584.117 158.487 585.733 156.743 585.733 154.087C585.733 151.415 584.117 149.671 581.653 149.671ZM581.653 157.175C580.149 157.175 579.221 155.991 579.221 154.087C579.221 152.167 580.149 150.983 581.653 150.983C583.125 150.983 584.069 152.167 584.069 154.087C584.069 155.991 583.125 157.175 581.653 157.175ZM588.396 150.967V149.863H586.844V158.295H588.476V153.655C588.476 151.927 589.5 151.031 590.572 151.031C591.788 151.031 592.444 151.607 592.444 153.191V158.295H594.076V152.695C594.076 150.567 592.62 149.671 591.084 149.671C590.044 149.671 589.1 150.039 588.46 150.967H588.396Z" fill="black"/>
<path opacity="0.5" d="M1.111 149.871V161.295H5.447C8.695 161.295 10.871 159.375 10.871 155.583C10.871 151.807 8.695 149.871 5.447 149.871H1.111ZM2.871 159.823V151.359H5.223C7.687 151.359 9.079 152.815 9.079 155.599C9.079 158.367 7.687 159.823 5.223 159.823H2.871ZM12.0943 149.711V151.487H13.7423V149.711H12.0943ZM12.1103 152.863V161.295H13.7423V152.863H12.1103ZM22.7731 152.863H21.2211V153.839H21.1571C20.7091 153.103 19.7811 152.671 18.6131 152.671C16.4211 152.671 14.8691 154.303 14.8691 156.767C14.8691 159.231 16.4211 160.847 18.6131 160.847C19.7491 160.847 20.6291 160.431 21.0771 159.791H21.1411V160.639C21.1411 162.383 20.2931 163.103 18.8371 163.103C17.6851 163.103 16.8851 162.671 16.5651 161.439L14.9971 161.759C15.5251 163.663 17.0291 164.431 18.8371 164.431C21.0291 164.431 22.7731 163.407 22.7731 160.719V152.863ZM18.9011 159.567C17.4451 159.567 16.5331 158.415 16.5331 156.767C16.5331 155.119 17.4451 153.983 18.9011 153.983C20.3251 153.983 21.2531 155.119 21.2531 156.767C21.2531 158.415 20.3251 159.567 18.9011 159.567ZM24.0786 149.711V151.487H25.7266V149.711H24.0786ZM24.0946 152.863V161.295H25.7266V152.863H24.0946ZM30.5335 159.919C29.8935 159.919 29.5895 159.823 29.5895 159.039V154.079H31.4295V152.863H29.5895V150.463H27.9575V152.863H26.5655V154.079H27.9575V159.471C27.9575 160.975 28.6455 161.327 30.1335 161.327C30.5495 161.327 31.1575 161.311 31.3335 161.295V159.903C31.1095 159.919 30.7255 159.919 30.5335 159.919ZM39.5271 161.295C39.3191 160.911 39.3031 160.431 39.3031 159.487V155.247C39.3031 153.823 38.4071 152.671 35.9591 152.671C34.1511 152.671 32.7431 153.567 32.3751 155.087L33.8631 155.423C34.1671 154.431 35.0311 153.999 35.8951 153.999C37.1751 153.999 37.6711 154.527 37.6711 155.279C37.6711 155.807 37.2551 156.095 35.6391 156.255C33.3831 156.479 32.0391 157.151 32.0391 158.975C32.0391 160.527 33.3191 161.487 34.8391 161.487C35.8471 161.487 37.1111 161.119 37.6871 160.175C37.6871 160.735 37.8151 161.167 37.9431 161.295H39.5271ZM37.6711 157.967C37.6711 159.583 36.2631 160.207 35.1591 160.207C34.2631 160.207 33.7191 159.775 33.7191 158.975C33.7191 158.031 34.5831 157.615 35.4631 157.503C36.4071 157.391 37.3991 157.247 37.6711 156.959V157.967ZM40.6103 149.711V161.295H42.2423V149.711H40.6103ZM43.6411 149.711V151.487H45.2891V149.711H43.6411ZM43.6571 152.863V161.295H45.2891V152.863H43.6571ZM46.288 161.295H52.992V159.887H48.272L52.992 154.351V152.863H46.528V154.287H50.976L46.288 159.807V161.295ZM61.1053 161.295C60.8973 160.911 60.8813 160.431 60.8813 159.487V155.247C60.8813 153.823 59.9853 152.671 57.5373 152.671C55.7293 152.671 54.3213 153.567 53.9533 155.087L55.4413 155.423C55.7453 154.431 56.6093 153.999 57.4733 153.999C58.7533 153.999 59.2493 154.527 59.2493 155.279C59.2493 155.807 58.8333 156.095 57.2173 156.255C54.9613 156.479 53.6173 157.151 53.6173 158.975C53.6173 160.527 54.8973 161.487 56.4173 161.487C57.4253 161.487 58.6893 161.119 59.2653 160.175C59.2653 160.735 59.3933 161.167 59.5213 161.295H61.1053ZM59.2493 157.967C59.2493 159.583 57.8413 160.207 56.7373 160.207C55.8413 160.207 55.2973 159.775 55.2973 158.975C55.2973 158.031 56.1613 157.615 57.0413 157.503C57.9852 157.391 58.9773 157.247 59.2493 156.959V157.967ZM65.5804 159.919C64.9404 159.919 64.6364 159.823 64.6364 159.039V154.079H66.4764V152.863H64.6364V150.463H63.0044V152.863H61.6124V154.079H63.0044V159.471C63.0044 160.975 63.6924 161.327 65.1804 161.327C65.5964 161.327 66.2044 161.311 66.3804 161.295V159.903C66.1564 159.919 65.7724 159.919 65.5804 159.919ZM67.438 149.711V151.487H69.086V149.711H67.438ZM67.454 152.863V161.295H69.086V152.863H67.454ZM74.3089 152.671C71.8129 152.671 70.2129 154.415 70.2129 157.087C70.2129 159.743 71.8129 161.487 74.3089 161.487C76.7729 161.487 78.3889 159.743 78.3889 157.087C78.3889 154.415 76.7729 152.671 74.3089 152.671ZM74.3089 160.175C72.8049 160.175 71.8769 158.991 71.8769 157.087C71.8769 155.167 72.8049 153.983 74.3089 153.983C75.7809 153.983 76.7249 155.167 76.7249 157.087C76.7249 158.991 75.7809 160.175 74.3089 160.175ZM81.0521 153.967V152.863H79.5001V161.295H81.1321V156.655C81.1321 154.927 82.1561 154.031 83.2281 154.031C84.4441 154.031 85.1001 154.607 85.1001 156.191V161.295H86.7321V155.695C86.7321 153.567 85.2761 152.671 83.7401 152.671C82.7001 152.671 81.7561 153.039 81.1161 153.967H81.0521Z" fill="black"/>
<path opacity="0.5" d="M55.327 353.871H53.567V360.943C53.567 363.199 52.527 364.047 50.719 364.047C48.895 364.047 47.871 363.199 47.871 360.943V353.871H46.111V361.119C46.111 364.047 48.095 365.551 50.719 365.551C53.327 365.551 55.327 364.047 55.327 361.119V353.871ZM63.3585 359.071C63.1345 357.791 61.7425 356.671 59.9025 356.671C57.9345 356.671 56.5585 357.711 56.5585 359.151C56.5585 360.911 57.9345 361.359 59.2465 361.583L60.0945 361.727C61.1185 361.903 61.8705 362.143 61.8705 362.911C61.8705 363.759 61.0865 364.271 59.9985 364.271C58.7985 364.271 57.9505 363.743 57.6785 362.543L56.1905 362.863C56.4625 364.399 57.8065 365.487 59.9665 365.487C61.9825 365.487 63.5345 364.607 63.5345 362.863C63.5345 361.055 62.1585 360.607 60.7025 360.351L59.8705 360.223C58.9745 360.063 58.2385 359.887 58.2385 359.135C58.2385 358.351 58.8945 357.919 59.8865 357.919C60.7825 357.919 61.6305 358.383 61.8705 359.375L63.3585 359.071ZM70.5459 362.639C70.3379 363.247 69.7619 364.175 68.3059 364.175C66.8979 364.175 66.0339 363.007 65.9859 361.471H72.2419C72.4659 358.447 70.7379 356.671 68.2899 356.671C65.8739 356.671 64.3219 358.431 64.3219 361.103C64.3219 363.727 65.9219 365.503 68.3059 365.503C70.7859 365.503 71.8099 364.063 72.1939 362.847L70.5459 362.639ZM68.2899 357.983C69.7299 357.983 70.4659 359.055 70.5939 360.223H66.0179C66.1459 359.055 66.8659 357.983 68.2899 357.983ZM74.9115 356.863H73.3595V365.295H74.9915V360.815C74.9915 358.927 76.0155 358.255 77.4075 358.255C77.7115 358.255 78.0155 358.287 78.2235 358.319V356.751C78.0315 356.703 77.7435 356.671 77.4875 356.671C76.2715 356.671 75.3915 357.327 74.9755 358.143H74.9115V356.863ZM85.8585 359.071C85.6345 357.791 84.2425 356.671 82.4025 356.671C80.4345 356.671 79.0585 357.711 79.0585 359.151C79.0585 360.911 80.4345 361.359 81.7465 361.583L82.5945 361.727C83.6185 361.903 84.3705 362.143 84.3705 362.911C84.3705 363.759 83.5865 364.271 82.4985 364.271C81.2985 364.271 80.4505 363.743 80.1785 362.543L78.6905 362.863C78.9625 364.399 80.3065 365.487 82.4665 365.487C84.4825 365.487 86.0345 364.607 86.0345 362.863C86.0345 361.055 84.6585 360.607 83.2025 360.351L82.3705 360.223C81.4745 360.063 80.7385 359.887 80.7385 359.135C80.7385 358.351 81.3945 357.919 82.3865 357.919C83.2825 357.919 84.1305 358.383 84.3705 359.375L85.8585 359.071Z" fill="black"/>
</svg>
